<?xml version="1.0" encoding="UTF-8" standalone="no"?>
<!-- Created with Inkscape (http://www.inkscape.org/) -->

<svg
   xmlns:dc="http://purl.org/dc/elements/1.1/"
   xmlns:cc="http://creativecommons.org/ns#"
   xmlns:rdf="http://www.w3.org/1999/02/22-rdf-syntax-ns#"
   xmlns:svg="http://www.w3.org/2000/svg"
   xmlns="http://www.w3.org/2000/svg"
   xmlns:sodipodi="http://sodipodi.sourceforge.net/DTD/sodipodi-0.dtd"
   xmlns:inkscape="http://www.inkscape.org/namespaces/inkscape"
   id="svg3039"
   version="1.1"
   inkscape:version="0.48.4 r9939"
   width="1500"
   height="749"
   sodipodi:docname="austin3.svg">
  <metadata
     id="metadata3045">
    <rdf:RDF>
      <cc:Work
         rdf:about="">
        <dc:format>image/svg+xml</dc:format>
        <dc:type
           rdf:resource="http://purl.org/dc/dcmitype/StillImage" />
        <dc:title></dc:title>
      </cc:Work>
    </rdf:RDF>
  </metadata>
  <defs
     id="defs3043" />
  <sodipodi:namedview
     pagecolor="#ffffff"
     bordercolor="#666666"
     borderopacity="1"
     objecttolerance="10"
     gridtolerance="10"
     guidetolerance="10"
     inkscape:pageopacity="0"
     inkscape:pageshadow="2"
     inkscape:window-width="1680"
     inkscape:window-height="1026"
     id="namedview3041"
     showgrid="false"
     inkscape:zoom="1.0226667"
     inkscape:cx="750"
     inkscape:cy="374.5"
     inkscape:window-x="1920"
     inkscape:window-y="24"
     inkscape:window-maximized="1"
     inkscape:current-layer="svg3039" />
  <path
     style="fill:#808080"
     d="m 0.97783572,653.9335 0,-98 4.49999998,0 c 3.8333333,0 4.5,-0.2963 4.5,-2 0,-1.79487 0.6666663,-2 6.5000003,-2 5.833333,0 6.5,0.20513 6.5,2 0,1.79487 0.666667,2 6.5,2 l 6.5,0 0,8 0,8 3,0 3,0 0,-126.5 0,-126.5 17,0 17,0 0,-10.8237 0,-10.82371 7.595612,-8.92629 c 4.177586,-4.90947 8.178453,-9.53609 8.890814,-10.2814 1.358023,-1.42083 3.38533,0.90518 12.898238,14.79863 3.6259,5.29557 3.72389,5.67609 3.60522,14 -0.0671,4.70606 -0.0923,9.34397 -0.0559,10.30647 0.0599,1.58595 1.47217,1.75 15.06605,1.75 l 15,0 0,126.46379 0,126.46379 9.75,0.28621 9.75,0.28621 0.24355,17 c 0.13395,9.35 0.24695,17.225 0.25111,17.5 0.004,0.275 4.73229,0.5 10.50695,0.5 l 10.49937,0 -4.9e-4,-5.75 -5.2e-4,-5.75 15.5,0 15.5,0 0,-9 0,-9 4.5,0 4.5,0 0,-34.89301 c 0,-29.019 0.23615,-34.98363 1.4028,-35.43132 0.77154,-0.29607 11.90904,-0.56594 24.75,-0.59972 12.84096,-0.0338 34.49148,-0.35865 48.11226,-0.72193 l 24.76506,-0.66051 -0.53632,9.90324 c -1.06424,19.65116 -2.54778,68.50689 -2.10216,69.22792 0.36103,0.58415 6.44464,0.67261 14.85836,0.21603 0.4125,-0.0224 0.75,-5.8907 0.75,-13.0407 l 0,-13 3.10057,0 3.10057,0 -0.61,-59.75 c -0.33549,-32.8625 -0.87175,-67.5125 -1.19167,-77 l -0.58169,-17.25 8.34111,0.0172 c 4.58761,0.009 33.99111,0.90172 65.34111,1.98283 31.35,1.08111 57.7875,1.97338 58.75,1.98283 1.61312,0.0158 1.75,1.738 1.75,22.01717 l 0,22 11,0 11,0 0,4.5 0,4.5 4.5,0 4.5,0 0,4.5 0,4.5 6,0 6,0 0,-5.60699 c 0,-4.59119 0.27373,-5.50195 1.51094,-5.02719 0.83101,0.31889 2.85601,0.31079 4.5,-0.018 2.70165,-0.54037 2.98906,-0.97045 2.98906,-4.47285 l 0,-3.875 17.08158,0 17.08158,0 -0.45715,3.39231 c -0.58538,4.34374 0.44225,6.0128 3.16914,5.14731 1.99278,-0.63248 2.12485,-0.32836 2.12485,4.89299 l 0,5.56739 4.5,0 4.5,0 0,17 0,17 14,0 14,0 0,19.5 0,19.5 4.5,0 4.5,0 0,-63 c 0,-41.33333 -0.34392,-63 -1,-63 -0.60606,0 -1,-4.33333 -1,-11 l 0,-11 7.5,0 7.5,0 0,3.5 0,3.5 6.49508,0 6.49507,0 0.25493,-97.75 0.25492,-97.75 4.25,-0.3075 4.25,-0.3075 0,-31.21334 0,-31.21335 8.76978,-8.72915 8.76979,-8.72915 15.00106,0 15.00107,0 8.72915,8.76978 8.72915,8.76979 0,28.73021 0,28.73021 4.5,0 4.5,0 0,106.41821 c 0,58.53002 0.27314,107.13002 0.60699,108 0.46591,1.21414 2.0929,1.58179 7,1.58179 l 6.39301,0 0,36.03621 0,36.03621 9.62227,-0.28621 9.62226,-0.28621 0.12774,-21.5 0.12773,-21.5 5.75,-0.2999 5.75,-0.29991 0,-14.95009 0,-14.9501 4.5,0 4.5,0 0,-11.43963 0,-11.43964 3.61755,-0.31036 c 3.52677,-0.30258 3.82766,-0.67415 11.99118,-14.80743 4.6055,-7.97338 8.72707,-14.61487 9.15904,-14.75886 0.43197,-0.14399 4.62157,6.37968 9.31022,14.49706 7.94707,13.75863 8.74159,14.7801 11.72341,15.07222 l 3.1986,0.31336 0,11.43664 0,11.43664 3.5,0 3.5,0 0,15 0,15 6,0 6,0 0,25.5 0,25.5 11,0 11,0 0,-24 0,-24 16,0 16,0 0,-40 0,-40 3.00207,0 c 2.51776,0 3.72769,-0.98569 7.5,-6.11001 l 4.49793,-6.11001 0,-18.88999 0,-18.88999 8.06824,0 8.06823,0 -0.23282,-8.25 c -0.18486,-6.5506 0.31605,-10.05239 2.43176,-17 1.46553,-4.8125 3.82817,-12.61219 5.25031,-17.33265 l 2.58573,-8.58265 4.43871,7.58265 c 2.44129,4.17046 4.64623,7.58265 4.89988,7.58265 0.25364,0 1.88249,-2.8125 3.61966,-6.25 l 3.1585,-6.25 4.65568,15.71645 c 2.56062,8.64404 4.97078,16.03154 5.3559,16.41666 0.38512,0.38512 0.70022,4.22522 0.70022,8.53356 l 0,7.83333 8,0 8,0 0,15.2575 0,15.25751 5.61171,7.74249 5.6117,7.7425 5.50234,0 5.50234,0 -0.74203,57.53181 -0.74203,57.5318 12.25753,-0.2818 12.2575,-0.28181 -0.098,-15.25 -0.099,-15.25 5.4689,0 5.469,0 0,-10.5 0,-10.5 4.9611,0 4.961,0 0.289,-8.75 0.2889,-8.75 4.5,0 4.5,0 0.5,-9.5 0.5,-9.5 20.5,0 20.5,0 0.5,9.56661 0.5,9.56661 3.75,-0.16586 3.75,-0.16587 0,8.84926 0,8.84925 6,0 6,0 0,10.5 0,10.5 7.5,0 7.5,0 0,15.5 0,15.5 9,0 9,0 0,34.5 0,34.5 14.5,0 14.5,0 0,7 0,7 6.147,0 6.1469,0 -0.6337,-16.75 c -1.7162,-45.35692 -2.8541,-93.38941 -2.2274,-94.01612 0.386,-0.38599 4.0465,-0.87071 8.1345,-1.07715 l 7.4327,-0.37533 0,-8.3907 0,-8.3907 3.75,-0.0238 c 3.2296,-0.0205 5.725,-1.55311 17.9814,-11.04366 l 14.2314,-11.01988 14.2686,11.03563 c 8.4168,6.50971 15.1914,11.03892 16.5186,11.04366 2.1224,0.008 2.25,0.4127 2.25,7.14612 l 0,7.1381 6.5,-0.66594 6.5,-0.66595 0,61.02785 0,61.02785 5.0963,0 5.0962,0 -0.5884,-20.25 c -0.3236,-11.1375 -0.8205,-34.875 -1.1043,-52.75 -0.9702,-61.11655 -1.5146,-90.506 -2.1072,-113.75 l -0.5927,-23.25 5.1,0 5.1001,0 0,-3.5 0,-3.5 12,0 12,0 0,-10.5 0,-10.5 17,0 17,0 0,10.52605 0,10.52604 15.25,-0.27604 15.25,-0.27605 0.2817,-11.75 0.2818,-11.75 15.4682,0 15.4683,0 0,12 0,12 9.5,0 9.5,0 0,5.43358 c 0,5.18416 0.1262,5.4481 2.75,5.75 l 2.75,0.31642 0.2573,64.75 0.2573,64.75 11.4927,0 11.4927,0 0,43.5 0,43.5 11,0 11,0 0,13.5 0,13.5 6,0 6,0 0,72.5 0,72.5 -749.99996,0 -750.00000428,0 0,-98 z m 247.00000428,-50 c 0,-3.33333 -0.33333,-4 -2,-4 -1.23289,0 -2.00524,0.67122 -2.01365,1.75 -0.008,0.9625 -0.285,2.7625 -0.61664,4 -0.51285,1.9137 -0.21188,2.25 2.01366,2.25 2.38607,0 2.61663,-0.35246 2.61663,-4 z m 35,0 c 0,-3.65079 -0.22917,-4 -2.625,-4 -2.41984,0 -2.57498,0.25012 -1.98494,3.20029 0.59211,2.96055 2.03346,4.74711 3.85994,4.7844 0.4125,0.008 0.75,-1.78469 0.75,-3.98469 z m -43.54618,-13.25 c -0.66024,-3.04332 -1.95544,-4.69899 -3.70382,-4.73469 -0.4125,-0.008 -0.75,1.78469 -0.75,3.98469 0,3.63286 0.23676,4 2.57946,4 2.38812,0 2.52715,-0.24107 1.87436,-3.25 z m 34.54618,0.25 c 0,-1.65 0.1125,-3.3375 0.25,-3.75 0.1375,-0.4125 -0.7625,-0.8938 -2,-1.06955 -2.01709,-0.28647 -2.25,0.10171 -2.25,3.75 0,3.40288 0.32764,4.06955 2,4.06955 1.55556,0 2,-0.66667 2,-3 z m -35,-25.88342 c 0,-3.34821 -0.34455,-3.94929 -2.5,-4.36133 -2.31079,-0.44174 -2.5,-0.19121 -2.5,3.3101 0,3.61723 0.55567,4.24725 4.25,4.81865 0.4125,0.0638 0.75,-1.63154 0.75,-3.76742 z m 18,-0.61658 c 0,-3.83333 -0.2963,-4.5 -2,-4.5 -1.66044,0 -2,0.66667 -2,3.92668 0,2.8988 0.45809,4.04638 1.75,4.38399 0.9625,0.25153 1.8625,0.50953 2,0.57333 0.1375,0.0638 0.25,-1.909 0.25,-4.384 z m 17,-0.5 c 0,-3.33333 -0.33333,-4 -2,-4 -1.1,0 -2,0.39375 -2,0.875 0,0.48125 -0.28125,2.28125 -0.625,4 -0.57302,2.86508 -0.40667,3.125 2,3.125 2.39583,0 2.625,-0.34921 2.625,-4 z m 989.99996,-4.5 c 0,-2.83333 -0.381,-3.5 -2,-3.5 -1.619,0 -2,0.66667 -2,3.5 0,2.83333 0.381,3.5 2,3.5 1.619,0 2,-0.66667 2,-3.5 z m -26,-1 c 0,-2.76109 -0.3976,-3.5 -1.8834,-3.5 -1.1078,0 -2.1316,0.92655 -2.4863,2.25 -1.0421,3.88865 -0.7031,4.75 1.8697,4.75 2.1905,0 2.5,-0.43333 2.5,-3.5 z m 112.75,-1.13029 c 1.3234,-0.35467 2.25,-1.37854 2.25,-2.48634 0,-2.05127 -1.7541,-2.31523 -8.25,-1.24152 -2.7748,0.45864 -3.75,1.10594 -3.75,2.48899 0,1.49568 0.7493,1.86643 3.75,1.85551 2.0625,-0.008 4.7625,-0.285 6,-0.61664 z m 75.25,-3.93098 c 0,-2.47814 -0.1542,-2.54064 -4.75,-1.92535 -6.4672,0.86581 -7.25,1.1849 -7.25,2.95524 0,1.20502 1.2787,1.53138 6,1.53138 5.7716,0 6,-0.0975 6,-2.56127 z m -21.5818,0.95428 c 2.51,-0.96316 1.9866,-4.39499 -0.6682,-4.382 -5.8809,0.0288 -9.75,1.26681 -9.75,3.11983 0,1.54351 0.7698,1.86916 4.4182,1.86916 2.43,0 5.13,-0.27314 6,-0.60699 z M 416.85284,552.3085 c 4.81598,-0.9632 3.7014,-2.375 -1.875,-2.375 -3.77778,0 -5,0.36667 -5,1.5 0,1.61634 1.93617,1.86277 6.875,0.875 z m -22.875,-3.08814 c 0,-1.08842 -0.63899,-1.34888 -2.25,-0.91715 -1.2375,0.33164 -3.4875,0.60913 -5,0.61664 -1.52571,0.008 -2.75028,0.57014 -2.75062,1.26365 -4.4e-4,0.87961 1.48114,1.14732 5,0.90349 3.65577,-0.25333 5.00062,-0.75533 5.00062,-1.86663 z m 860.99996,-0.67028 c 0,-2.81488 -0.4201,-3.46373 -2.5,-3.86133 -2.2567,-0.43139 -2.5,-0.15788 -2.5,2.8101 0,3.08257 0.6718,3.76521 4.25,4.31865 0.4125,0.0638 0.75,-1.40654 0.75,-3.26742 z m -882.99996,0.002 c 0,-0.92101 -2.34896,-1.12652 -9.25,-0.80926 -9.4719,0.43544 -11.02979,0.77795 -9.07468,1.99508 1.99179,1.23995 18.32468,0.18302 18.32468,-1.18585 z m 856.81336,-0.86858 c -0.2402,-2.49095 -0.8389,-3.32463 -2.5634,-3.56955 -1.9728,-0.28018 -2.25,0.12023 -2.25,3.25 0,3.16438 0.291,3.56955 2.5634,3.56955 2.2896,0 2.5299,-0.34708 2.25,-3.25 z m -1117.31336,-3.25 c 0,-2.33333 -0.44444,-3 -2,-3 -1.5355,0 -2.07414,0.77307 -2.31922,3.32862 -0.2859,2.9811 -0.0771,3.29431 2,3 1.83722,-0.26032 2.31922,-0.95211 2.31922,-3.32862 z m 702.5,-1.41821 c 0,-1.05502 0.27314,-2.63002 0.60699,-3.5 0.45784,-1.19311 -0.0336,-1.58179 -2,-1.58179 -2.31275,0 -2.60699,0.39503 -2.60699,3.5 0,2.83333 0.38095,3.5 2,3.5 1.30491,0 2,-0.66667 2,-1.91821 z m 499.33466,-5.08027 c -0.4591,-0.4223 -2.9722,-1.07297 -5.5847,-1.44594 -4.5452,-0.64889 -4.75,-0.57377 -4.75,1.7425 0,2.14036 0.6079,2.52376 5.25,3.31128 4.7249,0.80157 5.2835,0.70409 5.5847,-0.9747 0.184,-1.02593 -0.041,-2.21084 -0.5,-2.63314 z m -893.67974,1.54161 c -0.66832,-1.74161 -8.12547,-2.20882 -9.1368,-0.57245 -0.58368,0.94442 1.37418,1.63587 6.48188,2.28918 3.10672,0.39737 3.39472,0.21115 2.65492,-1.71673 z m 967.34504,-0.91813 c 0,-2.43954 -2.8206,-3.625 -8.625,-3.625 -3.548,0 -3.2384,3.77147 0.375,4.56842 1.5125,0.33359 3.2,0.75663 3.75,0.9401 2.9995,1.00059 4.5,0.37256 4.5,-1.88352 z m 38.1549,-0.125 c -0.4547,-2.63581 -0.1498,-2.47519 -6.0193,-3.17034 -4.7012,-0.5568 -5.1356,-0.4357 -5.1356,1.43171 0,1.51038 0.9735,2.30314 3.75,3.05377 5.5205,1.49249 7.8189,1.08428 7.4049,-1.31514 z m -1031.15486,0 c 0,-0.96639 -0.97829,-1.50486 -2.75,-1.51365 -1.5125,-0.008 -3.7625,-0.285 -5,-0.61664 -1.62186,-0.43464 -2.25,-0.17213 -2.25,0.94033 0,1.70121 1.82801,2.39828 6.75,2.57396 2.27378,0.0812 3.25,-0.33456 3.25,-1.384 z m 1011.99996,-0.93261 c 0,-2.59395 -0.7624,-2.99555 -7.75,-4.08224 -4.0223,-0.62553 -4.25,-0.52983 -4.25,1.78631 0,2.45322 0.7425,2.75663 11.25,4.59717 0.4125,0.0722 0.75,-0.96331 0.75,-2.30124 z m -1033.99996,-0.0674 c 0,-1.16312 -1.31944,-1.5 -5.875,-1.5 -3.23125,0 -7.28125,-0.28125 -9,-0.625 -2.43275,-0.48655 -3.125,-0.27906 -3.125,0.93664 0,1.70578 2.69709,2.26244 12.25,2.52832 4.51557,0.12568 5.75,-0.16198 5.75,-1.33996 z m -131,-3.5 c 0,-3.6 -0.25,-4 -2.5,-4 -2.71607,0 -2.80418,0.22909 -1.875,4.875 0.43333,2.16667 1.2,3.125 2.5,3.125 1.52083,0 1.875,-0.75556 1.875,-4 z m 18.63029,1.75 c -0.33164,-1.2375 -0.60913,-3.0375 -0.61664,-4 -0.008,-1.07878 -0.78076,-1.75 -2.01365,-1.75 -1.6,0 -2,0.66667 -2,3.33333 0,3.84432 0.57858,4.66667 3.2833,4.66667 1.53418,0 1.82139,-0.47976 1.34699,-2.25 z m -157.4405,-2.25 c -0.33972,-2.91 -0.81158,-3.5 -2.7992,-3.5 -2.466998,0 -2.795619,0.88675 -1.760308,4.75 0.391771,1.46189 1.367467,2.25 2.785548,2.25 1.90553,0 2.1307,-0.44427 1.77396,-3.5 z m 702.81021,-2.88341 c 0,-2.81488 -0.4201,-3.46373 -2.5,-3.86133 -2.25542,-0.43115 -2.5,-0.15721 -2.5,2.80009 0,1.8029 0.5625,3.50497 1.25,3.78238 2.91585,1.17657 3.75,0.57128 3.75,-2.72114 z m -124,0.0259 c 0,-0.92648 -1.95181,-1.56155 -6.14669,-2 -9.45963,-0.98875 -11.85331,-0.82565 -11.85331,0.80762 0,1.41489 0.86155,1.55279 14.75,2.36082 2.1635,0.12587 3.25,-0.26476 3.25,-1.16846 z m 356.99996,-0.64248 c 0,-1.7037 -0.6667,-2 -4.5,-2 -5.4627,0 -6.4657,2.62934 -1.25,3.2766 1.7875,0.22183 3.8125,0.47534 4.5,0.56336 0.6875,0.088 1.25,-0.73996 1.25,-1.83996 z m 62,-0.5 c 0,-1.13333 -1.2222,-1.5 -5,-1.5 -4.6467,0 -5.9597,0.70698 -4.3333,2.33333 0.3666,0.36667 2.6166,0.66667 5,0.66667 3.1852,0 4.3333,-0.39744 4.3333,-1.5 z m -646.99996,-1 c 0,-1.22807 -1.72222,-1.5 -9.5,-1.5 -7.77778,0 -9.5,0.27193 -9.5,1.5 0,1.22807 1.72222,1.5 9.5,1.5 7.77778,0 9.5,-0.27193 9.5,-1.5 z m 633.77496,-0.67489 c -0.1787,-0.53631 -0.6512,-0.94136 -1.05,-0.90011 -0.3987,0.0412 -2.525,0.075 -4.725,0.075 -2.533,0 -4.0002,0.45844 -4.0006,1.25 -5e-4,0.88124 1.4893,1.14678 5.05,0.90011 2.7779,-0.19244 4.9044,-0.78869 4.7256,-1.325 z m -30.775,-0.32511 c 0,-1.13333 -1.2222,-1.5 -5,-1.5 -3.7778,0 -5,0.36667 -5,1.5 0,1.13333 1.2222,1.5 5,1.5 3.7778,0 5,-0.36667 5,-1.5 z m 14,-0.13084 c 0,-1.32806 -0.6962,-1.51576 -3.75,-1.01101 -2.0625,0.34091 -4.3125,0.62479 -5,0.63084 -0.6875,0.006 -1.25,0.46101 -1.25,1.01101 0,0.55 2.25,1 5,1 3.9561,0 5,-0.3405 5,-1.63084 z m 46,0.13084 c 0,-1.11111 -1.1667,-1.5 -4.5,-1.5 -3.3333,0 -4.5,0.38889 -4.5,1.5 0,1.11111 1.1667,1.5 4.5,1.5 3.3333,0 4.5,-0.38889 4.5,-1.5 z m -743.99996,-2.09654 c 0,-1.21809 -1.61505,-1.42787 -9.16911,-1.19099 -6.06385,0.19016 -9.30488,0.69733 -9.57002,1.49758 -0.28881,0.87173 2.06508,1.29111 8.41911,1.5 9.9149,0.32594 10.32002,0.25502 10.32002,-1.80659 z m 22,1.09654 c 0,-1.13333 -1.22222,-1.5 -5,-1.5 -3.77778,0 -5,0.36667 -5,1.5 0,1.13333 1.22222,1.5 5,1.5 3.77778,0 5,-0.36667 5,-1.5 z m 919.99996,-3 c 0,-2.36364 -0.3,-2.5 -5.5,-2.5 -5.2,0 -5.5,0.13636 -5.5,2.5 0,2.36364 0.3,2.5 5.5,2.5 5.2,0 5.5,-0.13636 5.5,-2.5 z m 39,0 c 0,-2.36364 -0.3,-2.5 -5.5,-2.5 -5.2,0 -5.5,0.13636 -5.5,2.5 0,2.36364 0.3,2.5 5.5,2.5 5.2,0 5.5,-0.13636 5.5,-2.5 z m -1102.99996,-2.5 c 0,-3.33333 -0.33333,-4 -2,-4 -1.66667,0 -2,0.66667 -2,4 0,3.33333 0.33333,4 2,4 1.66667,0 2,-0.66667 2,-4 z m 1006.99996,0.56739 c 0,-2.5959 -0.5059,-3.59317 -2.0754,-4.09131 -2.8068,-0.89087 -3.1687,-0.29409 -2.3778,3.92174 0.4927,2.62623 1.1875,3.60218 2.5645,3.60218 1.4848,0 1.8887,-0.73409 1.8887,-3.43261 z m 130,0.43261 c 0,-2.9697 -0.056,-3 -5.5,-3 -5.1655,0 -5.5,0.14856 -5.5,2.4425 0,2.14682 0.5145,2.48884 4.25,2.82529 2.3375,0.21054 4.8125,0.46141 5.5,0.5575 0.761,0.10637 1.25,-0.99878 1.25,-2.82529 z m 38.8164,-0.32712 c 0.3123,-2.63821 0.2378,-2.67288 -5.75,-2.67288 -5.7679,0 -6.0664,0.12031 -6.0664,2.44521 0,2.19919 0.4779,2.48194 4.75,2.81026 6.5353,0.50225 6.7087,0.43885 7.0664,-2.58259 z m -194.8164,-1.17288 c 0,-3.06667 -0.3095,-3.5 -2.5,-3.5 -2.1905,0 -2.5,0.43333 -2.5,3.5 0,3.06667 0.3095,3.5 2.5,3.5 2.1905,0 2.5,-0.43333 2.5,-3.5 z m 19,0.11658 c 0,-2.81488 -0.4201,-3.46373 -2.5,-3.86133 -2.2567,-0.43139 -2.5,-0.15788 -2.5,2.8101 0,3.08257 0.6718,3.76521 4.25,4.31865 0.4125,0.0638 0.75,-1.40654 0.75,-3.26742 z m 156,-0.11658 c 0,-2.38889 -0.2667,-2.5 -6,-2.5 -5.7333,0 -6,0.11111 -6,2.5 0,2.38889 0.2667,2.5 6,2.5 5.7333,0 6,-0.11111 6,-2.5 z m -724.99996,-2 c 0,-1.22222 -1.66667,-1.5 -9,-1.5 -7.33333,0 -9,0.27778 -9,1.5 0,1.22222 1.66667,1.5 9,1.5 7.33333,0 9,-0.27778 9,-1.5 z m 357.36156,0 c 0.4419,-1.15137 -0.2115,-1.5 -2.8112,-1.5 -3.9419,0 -6.5504,0.83906 -6.5504,2.10699 0,1.60413 8.7304,1.03807 9.3616,-0.60699 z m -585.36156,-1.03753 c 0,-1.29248 -1.46133,-1.4917 -9.16911,-1.25 -6.23207,0.19543 -9.30179,0.68793 -9.58333,1.53753 -0.31212,0.94186 1.94819,1.25 9.16911,1.25 7.9558,0 9.58333,-0.26112 9.58333,-1.53753 z m 646.99996,-0.0875 c 0,-1.28667 -0.6506,-1.49487 -3.125,-1 -1.7187,0.34375 -3.9687,0.625 -5,0.625 -1.0312,0 -1.875,0.45 -1.875,1 0,0.55 2.25,1 5,1 3.9487,0 5,-0.34167 5,-1.625 z M 419.97784,516.4335 c 0,-1.58292 -3.58673,-1.98543 -7.75,-0.86971 -3.94442,1.05706 -2.42112,2.36971 2.75,2.36971 3.77778,0 5,-0.36667 5,-1.5 z m 635.99996,-0.0548 c 0,-1.22802 -0.9819,-1.49073 -4.6718,-1.25 -6.6718,0.43527 -7.0194,2.80479 -0.4115,2.80479 3.9314,0 5.0833,-0.35231 5.0833,-1.55479 z m 14,0.0548 c 0,-0.825 -0.8437,-1.5 -1.875,-1.5 -1.0312,0 -3.2812,-0.28125 -5,-0.625 -2.4306,-0.48613 -3.125,-0.2787 -3.125,0.93358 0,0.93261 1.1045,1.72589 2.75,1.97517 5.7802,0.87562 7.25,0.71672 7.25,-0.78375 z m 17,0.46862 c 0,-1.19645 -1.0924,-1.60203 -6.25,-2.3205 -2.7556,-0.38385 -3.75,-0.16073 -3.75,0.84143 0,1.52993 1.9546,2.22329 6.75,2.39445 1.7875,0.0638 3.25,-0.34812 3.25,-0.91538 z m 25.875,0.40638 c 4.6277,-0.92554 3.7885,-2.375 -1.375,-2.375 -3.3333,0 -4.5,0.38889 -4.5,1.5 0,1.64546 1.1594,1.81813 5.875,0.875 z m -718.87496,-1.92979 c 0,-1.22802 -0.9819,-1.49073 -4.67183,-1.25 -6.67175,0.43527 -7.0194,2.80479 -0.4115,2.80479 3.93147,0 5.08333,-0.35231 5.08333,-1.55479 z m 132,-1.33822 c 0,-1.78 -0.64251,-3.13957 -1.67005,-3.53387 -1.93824,-0.74377 -3.29277,0.9631 -3.31464,4.17688 -0.0118,1.73742 0.55423,2.25 2.48469,2.25 2.09057,0 2.5,-0.4738 2.5,-2.89301 z m 36,-0.60699 c 0,-3.06667 -0.30952,-3.5 -2.5,-3.5 -1.7978,0 -2.5,0.53879 -2.5,1.91821 0,3.24106 1.12542,5.08179 3.10699,5.08179 1.49677,0 1.89301,-0.7326 1.89301,-3.5 z m -190,1 c 0,-1.20704 -1.54647,-1.5 -7.91821,-1.5 -8.15768,0 -11.08179,0.55596 -11.08179,2.10699 0,0.49115 4.275,0.89301 9.5,0.89301 7.77778,0 9.5,-0.27193 9.5,-1.5 z m -267,-8 c 0,-3.06667 -0.30952,-3.5 -2.5,-3.5 -2.19048,0 -2.500004,0.43333 -2.500004,3.5 0,3.06667 0.309524,3.5 2.500004,3.5 2.19048,0 2.5,-0.43333 2.5,-3.5 z m 18.63029,1.25 c -0.33164,-1.2375 -0.60913,-2.8125 -0.61664,-3.5 -0.008,-0.6875 -1.09652,-1.25 -2.42003,-1.25 -1.97559,0 -2.31771,0.40279 -1.91109,2.25 0.94736,4.30361 1.26713,4.75 3.40272,4.75 1.73956,0 2.03336,-0.42784 1.54504,-2.25 z m 1191.20827,-0.64522 c 0.3192,-2.25806 0.1188,-2.3589 -3.5,-1.761 -2.1112,0.34881 -4.8511,0.63916 -6.0886,0.64521 -1.598,0.008 -2.25,0.60502 -2.25,2.06091 0,1.86364 0.5225,2.02266 5.75,1.75 5.2037,-0.27141 5.7822,-0.52746 6.0886,-2.69512 z m 38.1614,0.26438 c 0,-2.48361 -0.2099,-2.59616 -3.75,-2.01101 -2.0625,0.34091 -4.5375,0.62479 -5.5,0.63084 -1.0797,0.007 -1.75,0.77711 -1.75,2.01101 0,1.75758 0.6667,2 5.5,2 5.2729,0 5.5,-0.10861 5.5,-2.63084 z m -679.41817,0.63084 c 6.16516,0 7.41821,-0.27307 7.41821,-1.61663 0,-1.1885 -0.59587,-1.45695 -2.25,-1.01366 -1.2375,0.33164 -5.2875,0.60913 -9,0.61664 -5.5274,0.0112 -6.75,0.30472 -6.75,1.62064 0,1.05452 0.5438,1.39831 1.58179,1 0.86998,-0.33385 4.91998,-0.60699 9,-0.60699 z m 364.41817,-0.5 c 0,-1.11111 -1.1667,-1.5 -4.5,-1.5 -3.3333,0 -4.5,0.38889 -4.5,1.5 0,1.11111 1.1667,1.5 4.5,1.5 3.3333,0 4.5,-0.38889 4.5,-1.5 z m 293.25,0.51101 c 1.1788,-0.007 1.75,-0.79646 1.75,-2.41739 0,-1.75894 -0.4708,-2.31187 -1.75,-2.05512 -0.9625,0.19319 -3.4375,0.62145 -5.5,0.95169 -2.9427,0.47117 -3.75,1.04943 -3.75,2.68597 0,1.85347 0.4173,2.01656 3.75,1.46569 2.0625,-0.34091 4.5375,-0.62479 5.5,-0.63084 z m 54,0 c 1.0797,-0.007 1.75,-0.77711 1.75,-2.01101 0,-1.59254 -0.6621,-1.99722 -3.25,-1.98635 -5.3259,0.0224 -7.75,1.03389 -7.75,3.23382 0,1.77106 0.4527,1.93939 3.75,1.39438 2.0625,-0.34091 4.5375,-0.62479 5.5,-0.63084 z m 37.875,-0.011 c 2.355,0 2.875,-0.42711 2.875,-2.36133 0,-2.50974 0.2486,-2.47545 -8.25,-1.13813 -2.9421,0.46295 -3.75,1.03815 -3.75,2.66977 0,1.79592 0.4264,1.99441 3.125,1.45469 1.7188,-0.34375 4.4188,-0.625 6,-0.625 z M 452.97784,506.5585 c 0,-1.69059 -4.34576,-2.625 -12.20833,-2.625 -4.31944,0 -5.84517,0.34383 -5.5469,1.25 0.36011,1.09405 3.95223,1.69116 15.50523,2.5774 1.32611,0.10173 2.25,-0.392 2.25,-1.2024 z m 646.99996,-0.125 c 0,-0.88484 -0.9227,-1.5056 -2.25,-1.51365 -1.2375,-0.008 -3.2625,-0.285 -4.5,-0.61664 -1.6236,-0.4351 -2.25,-0.17227 -2.25,0.94411 0,1.49437 2.0397,2.2649 6.75,2.55 1.3939,0.0844 2.25,-0.43458 2.25,-1.36382 z m -679.99996,-0.875 c 0,-1.23656 -4.03307,-2.625 -7.625,-2.625 -2.5875,0 -1.38775,2.86522 1.375,3.28375 5.30743,0.804 6.25,0.70466 6.25,-0.65875 z m 387,-2.00837 c 0,-2.54236 -0.49714,-3.51337 -2,-3.90638 -1.74794,-0.45709 -2,-0.0307 -2,3.38337 0,3.23971 0.34132,3.90638 2,3.90638 1.60592,0 2,-0.66667 2,-3.38337 z m 19,-0.0492 c 0,-2.5959 -0.50588,-3.59317 -2.07536,-4.09131 -1.14145,-0.36228 -2.30927,-0.42478 -2.59516,-0.13889 -1.07818,1.07817 0.87309,6.56019 2.48667,6.98622 0.92612,0.24452 1.79635,0.49679 1.93385,0.56059 0.1375,0.0638 0.25,-1.42868 0.25,-3.31661 z m 229.99996,1.95166 c 0,-1.66742 -3.6049,-2.85349 -7.1483,-2.35193 -3.5358,0.50048 -2.4254,2.25131 1.8652,2.94097 2.0807,0.33446 4.1206,0.67196 4.5331,0.75 0.4125,0.0781 0.75,-0.52452 0.75,-1.33904 z m 350,-1.14989 c 0,-2.48361 -0.2099,-2.59616 -3.75,-2.01101 -2.0625,0.34091 -4.7625,0.62479 -6,0.63084 -1.5797,0.008 -2.25,0.60686 -2.25,2.01101 0,1.77778 0.6667,2 6,2 5.8129,0 6,-0.082 6,-2.63084 z m -1011.99996,0.23779 c 0,-1.75431 -2.17999,-2.60699 -6.66512,-2.60699 -4.53035,0 -3.99012,2.26241 0.74461,3.11836 5.48915,0.99233 5.92051,0.95507 5.92051,-0.51137 z m 675.99996,-0.10699 c 0,-1.13333 -1.2222,-1.5 -5,-1.5 -3.7778,0 -5,0.36667 -5,1.5 0,1.13333 1.2222,1.5 5,1.5 3.7778,0 5,-0.36667 5,-1.5 z m 17,0 c 0,-1.13333 -1.2222,-1.5 -5,-1.5 -3.7778,0 -5,0.36667 -5,1.5 0,1.13333 1.2222,1.5 5,1.5 3.7778,0 5,-0.36667 5,-1.5 z m 29,0 c 0,-1.11111 -1.1667,-1.5 -4.5,-1.5 -3.3333,0 -4.5,0.38889 -4.5,1.5 0,1.11111 1.1667,1.5 4.5,1.5 3.3333,0 4.5,-0.38889 4.5,-1.5 z m -743.99996,-0.86916 c 0,-1.57657 -4.9982,-2.60358 -12.75,-2.61983 -3.93174,-0.008 -5.25,0.35416 -5.25,1.4433 0,1.09423 1.67128,1.54093 6.75,1.80414 3.7125,0.19241 7.7625,0.43797 9,0.54569 1.33314,0.11605 2.25,-0.36206 2.25,-1.1733 z M 516.7912,501.6835 c -0.24017,-2.49095 -0.83886,-3.32463 -2.56336,-3.56955 -1.68589,-0.23944 -2.25,0.17881 -2.25,1.66821 0,3.3366 1.11687,5.15134 3.17035,5.15134 1.6048,0 1.90005,-0.58404 1.64301,-3.25 z m 36.18664,-0.25 c 0,-2.83333 -0.38095,-3.5 -2,-3.5 -1.61905,0 -2,0.66667 -2,3.5 0,2.83333 0.38095,3.5 2,3.5 1.61905,0 2,-0.66667 2,-3.5 z m 685.99996,-3 c 0,-2.83333 -0.381,-3.5 -2,-3.5 -1.619,0 -2,0.66667 -2,3.5 0,2.83333 0.381,3.5 2,3.5 1.619,0 2,-0.66667 2,-3.5 z m -464.1866,-1.25819 c 0.27975,-2.89413 0.0384,-3.24181 -2.25,-3.24181 -2.148,0 -2.56336,0.4591 -2.56336,2.83333 0,3.29453 0.79102,4.35139 2.95124,3.94305 0.93455,-0.17666 1.67303,-1.5784 1.86212,-3.53457 z m 438.1866,0.25819 c 0,-2.76109 -0.3976,-3.5 -1.8834,-3.5 -1.1078,0 -2.1316,0.92655 -2.4863,2.25 -1.0421,3.88865 -0.7031,4.75 1.8697,4.75 2.1905,0 2.5,-0.43333 2.5,-3.5 z m 36.1898,0 c -0.3397,-2.91 -0.8116,-3.5 -2.7992,-3.5 -2.8303,0 -3.2784,2.96935 -0.8192,5.42857 2.6678,2.66775 4.0679,1.92151 3.6184,-1.92857 z m -210.1898,-2.13084 c 0,-1.32806 -0.6962,-1.51576 -3.75,-1.01101 -2.0625,0.34091 -4.3125,0.62479 -5,0.63084 -0.6875,0.006 -1.25,0.46101 -1.25,1.01101 0,0.55 2.25,1 5,1 3.9561,0 5,-0.3405 5,-1.63084 z M 452.97784,494.4335 c 0,-1.23294 -1.73587,-1.49434 -9.75,-1.4682 -8.79126,0.0287 -9.55912,0.17618 -7.80887,1.5 2.79607,2.11485 17.55887,2.08811 17.55887,-0.0318 z m 228,0 c 0,-1.22222 -1.66667,-1.5 -9,-1.5 -7.33333,0 -9,0.27778 -9,1.5 0,1.22222 1.66667,1.5 9,1.5 7.33333,0 9,-0.27778 9,-1.5 z m 418.99996,0 c 0,-1.11111 -1.1667,-1.5 -4.5,-1.5 -3.3333,0 -4.5,0.38889 -4.5,1.5 0,1.11111 1.1667,1.5 4.5,1.5 3.3333,0 4.5,-0.38889 4.5,-1.5 z m -679.99996,-1 c 0,-1.11111 -1.16667,-1.5 -4.5,-1.5 -3.33333,0 -4.5,0.38889 -4.5,1.5 0,1.11111 1.16667,1.5 4.5,1.5 3.33333,0 4.5,-0.38889 4.5,-1.5 z m 635.99996,0 c 0,-1.13333 -1.2222,-1.5 -5,-1.5 -4.6467,0 -5.9597,0.70698 -4.3333,2.33333 0.3666,0.36667 2.6166,0.66667 5,0.66667 3.1852,0 4.3333,-0.39744 4.3333,-1.5 z m 10.875,0.875 c 4.816,-0.9632 3.7014,-2.375 -1.875,-2.375 -3.7778,0 -5,0.36667 -5,1.5 0,1.61634 1.9362,1.86277 6.875,0.875 z m 20.125,-0.92979 c 0,-1.22802 -0.9819,-1.49073 -4.6718,-1.25 -6.6718,0.43527 -7.0194,2.80479 -0.4115,2.80479 3.9314,0 5.0833,-0.35231 5.0833,-1.55479 z m 29.5,0.0548 c 0,-0.55 -2.1375,-1.13716 -4.75,-1.30479 -3.8255,-0.24547 -4.75,0.008 -4.75,1.30479 0,1.29631 0.9245,1.55026 4.75,1.30479 2.6125,-0.16763 4.75,-0.75479 4.75,-1.30479 z m 198.5,-0.95469 c 0,-2.06267 -0.5989,-2.55097 -3.75,-3.05761 -2.0625,-0.33161 -4.7625,-0.81058 -6,-1.06437 -1.8388,-0.37709 -2.25,-0.0208 -2.25,1.94944 0,2.07052 0.6706,2.55063 4.75,3.40083 7.0534,1.47003 7.25,1.43673 7.25,-1.22829 z m 38,-0.0263 c 0,-2.54828 -0.2647,-2.68245 -7.75,-3.92817 -2.9036,-0.48323 -3.25,-0.2886 -3.25,1.82594 0,2.26893 2.0879,3.17844 10.25,4.46496 0.4125,0.065 0.75,-0.99821 0.75,-2.36273 z m -958.99996,-0.019 c 0,-1.13333 -1.22222,-1.5 -5,-1.5 -4.64673,0 -5.95969,0.70698 -4.33333,2.33333 0.36666,0.36667 2.61666,0.66667 5,0.66667 3.18518,0 4.33333,-0.39744 4.33333,-1.5 z m 132,-2 c 0,-2.76647 -0.39644,-3.5 -1.89159,-3.5 -1.19282,0 -2.12765,0.94051 -2.5306,2.54599 -0.78706,3.13593 -0.0528,4.45401 2.48121,4.45401 1.5516,0 1.94098,-0.70214 1.94098,-3.5 z m -154,1 c 0,-1.22222 -1.66667,-1.5 -9,-1.5 -7.33333,0 -9,0.27778 -9,1.5 0,1.22222 1.66667,1.5 9,1.5 7.33333,0 9,-0.27778 9,-1.5 z m 960.99996,-1 c 0,-1.71009 -0.5529,-2.50348 -1.75,-2.51101 -0.9625,-0.006 -3.4774,-0.2964 -5.5886,-0.64521 -3.6165,-0.59752 -3.819,-0.496 -3.5,1.75457 0.2447,1.72653 1.1703,2.5657 3.3386,3.0269 6.2303,1.32522 7.5,1.05006 7.5,-1.62525 z m 93,0.12883 c 0,-2.09236 -0.5918,-2.44967 -5.0327,-3.03878 -2.768,-0.36719 -5.468,-0.39861 -6,-0.0698 -1.9131,1.18232 -0.9128,3.45369 1.7827,4.04819 1.5125,0.33359 3.2,0.75663 3.75,0.9401 0.55,0.18347 2.0125,0.36911 3.25,0.41253 1.7229,0.0605 2.25,-0.4765 2.25,-2.29222 z m -20,-1.08352 c 0,-2.05739 -0.6069,-2.55708 -3.75,-3.08732 -2.0625,-0.34794 -4.5375,-0.84866 -5.5,-1.1127 -1.3292,-0.36462 -1.75,0.12317 -1.75,2.02847 0,2.13526 0.6324,2.65017 4.25,3.4603 6.3976,1.4327 6.75,1.36541 6.75,-1.28875 z m -175.0137,-0.79531 c -0.033,-3.06569 -1.3225,-5.60467 -3.0788,-6.06393 -1.5941,-0.41687 -1.9075,0.0472 -1.9075,2.82422 0,1.82767 0.5625,3.55002 1.25,3.82743 2.2667,0.91464 3.7502,0.68129 3.7363,-0.58772 z m -465.16573,-6.22191 c -0.17629,-0.1538 -1.33303,-0.59086 -2.57053,-0.97125 -2.03631,-0.62593 -2.25,-0.35942 -2.25,2.80622 0,2.86604 0.40641,3.55556 2.25,3.81739 1.82487,0.25917 2.31056,-0.21822 2.57053,-2.52659 0.17629,-1.56537 0.17629,-2.97197 0,-3.12577 z m 438.36923,2.97191 c -0.3397,-2.91 -0.8116,-3.5 -2.7992,-3.5 -2.467,0 -2.7956,0.88675 -1.7603,4.75 0.3918,1.46189 1.3675,2.25 2.7855,2.25 1.9056,0 2.1307,-0.44427 1.774,-3.5 z m 62.2324,0.95401 c 0.7871,-3.13593 0.053,-4.45401 -2.4812,-4.45401 -1.5516,0 -1.941,0.70214 -1.941,3.5 0,2.76647 0.3964,3.5 1.8916,3.5 1.1928,0 2.1276,-0.94051 2.5306,-2.54599 z m -26.4222,-1.34704 c 0,-1.71556 -0.6438,-3.14006 -1.5818,-3.5 -2.3817,-0.91395 -2.4182,-0.87027 -2.4182,2.89301 0,2.83333 0.381,3.5 2,3.5 1.5391,0 2,-0.66667 2,-2.89301 z M 86.370847,485.35171 c 1.340996,-3.49458 0.668917,-5.41821 -1.893011,-5.41821 -2.190476,0 -2.5,0.43333 -2.5,3.5 0,2.7674 0.396236,3.5 1.893011,3.5 1.041156,0 2.166156,-0.7118 2.5,-1.58179 z m 36.606993,-1.91821 c 0,-3.06667 -0.30952,-3.5 -2.5,-3.5 -2.07843,0 -2.5,0.47778 -2.5,2.83333 0,3.3085 0.65221,4.16667 3.16667,4.16667 1.42857,0 1.83333,-0.77273 1.83333,-3.5 z m 915.99996,1 c 0,-0.825 -0.8437,-1.5 -1.875,-1.5 -1.0312,0 -3.2812,-0.28125 -5,-0.625 -2.4306,-0.48613 -3.125,-0.2787 -3.125,0.93358 0,0.93261 1.1045,1.72589 2.75,1.97517 5.7802,0.87562 7.25,0.71672 7.25,-0.78375 z m 60.7556,-1.25 c 0.2887,-0.87797 -0.953,-1.25 -4.1723,-1.25 -3.4826,0 -4.5833,0.37405 -4.5833,1.5575 0,1.21026 0.9302,1.48894 4.1723,1.25 2.2947,-0.16913 4.3572,-0.87 4.5833,-1.5575 z m -679.75556,-1.95768 c 0,-0.9627 -0.57084,-1.28725 -1.58179,-0.89931 -0.86998,0.33385 -2.89498,0.60699 -4.5,0.60699 -1.67682,0 -2.91821,0.53481 -2.91821,1.25721 0,0.87637 1.36313,1.14879 4.5,0.8993 3.18329,-0.25318 4.5,-0.79864 4.5,-1.86419 z m 33,1.06308 c 0,-1.42668 -0.89447,-1.56013 -6.75,-1.00711 -3.7125,0.35062 -7.9875,0.64069 -9.5,0.6446 -1.5125,0.004 -2.75,0.45711 -2.75,1.00711 0,0.59649 3.83333,1 9.5,1 8.14902,0 9.5,-0.23388 9.5,-1.6446 z m 228.31515,0.0235 c -0.50664,-1.32029 -1.56782,-1.50747 -5.71862,-1.00869 -2.80309,0.33684 -6.78403,0.61634 -8.84653,0.62112 -2.0625,0.005 -3.75,0.45869 -3.75,1.00869 0,0.59626 3.82287,1 9.46862,1 8.3201,0 9.39315,-0.19664 8.84653,-1.62112 z m 144.68485,-1.76232 c 0,-2.81488 -0.4201,-3.46373 -2.5,-3.86133 -2.25667,-0.43139 -2.5,-0.15788 -2.5,2.8101 0,3.08257 0.67179,3.76521 4.25,4.31865 0.4125,0.0638 0.75,-1.40654 0.75,-3.26742 z m 243.81426,1.63342 c -0.2504,-1.31861 -1.501,-1.82513 -5.0733,-2.05479 -4.8606,-0.31248 -6.7018,1.34827 -2.491,2.2468 5.1745,1.10417 6.2908,1.33173 7.0733,1.44199 0.4529,0.0638 0.6738,-0.6715 0.491,-1.634 z m 17.1857,0.35699 c 0,-1.75431 -2.18,-2.60699 -6.6651,-2.60699 -4.5304,0 -3.9901,2.26241 0.7446,3.11836 5.4891,0.99233 5.9205,0.95507 5.9205,-0.51137 z m 29,0 c 0,-1.68342 -2.1546,-2.60699 -6.0818,-2.60699 -4.4857,0 -3.7765,2.78949 0.8318,3.27153 2.0625,0.21575 4.0875,0.46791 4.5,0.56037 0.4125,0.0924 0.75,-0.45876 0.75,-1.22491 z m -60,-1.23783 c 0,-1.32806 -0.6962,-1.51576 -3.75,-1.01101 -2.0625,0.34091 -4.3125,0.62479 -5,0.63084 -0.6875,0.006 -1.25,0.46101 -1.25,1.01101 0,0.55 2.25,1 5,1 3.9561,0 5,-0.3405 5,-1.63084 z M 526.16763,478.4335 c -0.30607,-2.62174 -0.88301,-3.5 -2.2992,-3.5 -1.49401,0 -1.89059,0.73418 -1.89059,3.5 0,2.98515 0.33821,3.5 2.2992,3.5 2.03882,0 2.25292,-0.39637 1.89059,-3.5 z m 9.81021,0 c 0,-2.76112 -0.39761,-3.5 -1.88342,-3.5 -1.25959,0 -2.05719,0.90898 -2.40803,2.7443 -0.6442,3.36988 -0.15495,4.2557 2.35047,4.2557 1.5516,0 1.94098,-0.70214 1.94098,-3.5 z m -164,0.85754 c 0,-1.41481 -0.85192,-1.55341 -6.14669,-1 -3.38068,0.35335 -7.43068,0.64246 -9,0.64246 -1.56932,0 -2.85331,0.45 -2.85331,1 0,0.59259 3.66667,1 9,1 7.68027,0 9,-0.24084 9,-1.64246 z m 866.99996,-4.85754 c 0,-2.83333 -0.381,-3.5 -2,-3.5 -1.619,0 -2,0.66667 -2,3.5 0,2.83333 0.381,3.5 2,3.5 1.619,0 2,-0.66667 2,-3.5 z m 114.393,1.91821 c 1.1657,-3.03779 0.5655,-3.41821 -5.393,-3.41821 -5.7333,0 -6,0.11111 -6,2.5 0,2.35762 0.3071,2.5 5.393,2.5 3.9952,0 5.5503,-0.40997 6,-1.58179 z M 774.97784,473.4335 c 0,-3.06667 -0.30952,-3.5 -2.5,-3.5 -2.19048,0 -2.5,0.43333 -2.5,3.5 0,3.06667 0.30952,3.5 2.5,3.5 2.19048,0 2.5,-0.43333 2.5,-3.5 z m 437.99996,0 c 0,-2.83333 -0.381,-3.5 -2,-3.5 -1.1,0 -2.0061,0.5625 -2.0137,1.25 -0.01,0.6875 -0.2849,2.2625 -0.6166,3.5 -0.5128,1.9137 -0.2119,2.25 2.0137,2.25 2.3237,0 2.6166,-0.39173 2.6166,-3.5 z m 120.2448,1 c 0.4658,-2.43667 0.3294,-2.5 -5.3835,-2.5 -5.1242,0 -5.8613,0.24275 -5.8613,1.93045 0,1.99867 1.7691,2.6785 7.6334,2.93337 2.5977,0.11289 3.2152,-0.29128 3.6114,-2.36382 z m 53.7552,1.58179 c 0,-0.50502 0.2731,-1.63002 0.607,-2.5 0.5126,-1.33597 -0.3421,-1.58179 -5.5,-1.58179 -5.3629,0 -6.107,0.23477 -6.107,1.92668 0,1.05967 0.7875,2.13247 1.75,2.38399 3.2383,0.84626 9.25,0.6975 9.25,-0.22888 z m 39,-1.58179 c 0,-2.38889 -0.2667,-2.5 -6,-2.5 -5.2646,0 -6,0.23698 -6,1.93358 0,1.9869 1.8324,2.59767 8.75,2.91659 2.84,0.13093 3.25,-0.16559 3.25,-2.35017 z m -1348.186606,-2.75 c -0.240172,-2.49095 -0.838857,-3.32463 -2.563358,-3.56955 -1.972793,-0.28018 -2.25,0.12023 -2.25,3.25 0,3.16438 0.290959,3.56955 2.563358,3.56955 2.289607,0 2.529894,-0.34708 2.25,-3.25 z m 36.005866,-0.58681 c 0.28544,-2.96898 0.0748,-3.28565 -1.98978,-2.99181 -2.36956,0.33724 -3.4481,2.77404 -2.41704,5.46094 1.06487,2.77499 4.06422,1.09446 4.40682,-2.46913 z m 1292.18074,1.33681 c 0,-2.36364 -0.3,-2.5 -5.5,-2.5 -5.2,0 -5.5,0.13636 -5.5,2.5 0,2.36364 0.3,2.5 5.5,2.5 5.2,0 5.5,-0.13636 5.5,-2.5 z m -367,0 c 0,-1.13333 -1.2222,-1.5 -5,-1.5 -3.7778,0 -5,0.36667 -5,1.5 0,1.13333 1.2222,1.5 5,1.5 3.7778,0 5,-0.36667 5,-1.5 z m 61,-0.5 c 0,-1.7037 -0.6667,-2 -4.5,-2 -3.2536,0 -4.5,0.39954 -4.5,1.4425 0,0.97035 1.3911,1.5678 4.25,1.82529 2.3375,0.21054 4.3625,0.46141 4.5,0.5575 0.1375,0.0961 0.25,-0.72529 0.25,-1.82529 z m -646.99996,-0.5 c 0,-1.22222 -1.66667,-1.5 -9,-1.5 -7.33333,0 -9,0.27778 -9,1.5 0,1.22222 1.66667,1.5 9,1.5 7.33333,0 9,-0.27778 9,-1.5 z m 228,0 c 0,-1.06512 -1.0872,-1.50252 -3.75,-1.50869 -2.0625,-0.005 -6.1125,-0.29246 -9,-0.63929 -4.38643,-0.52687 -5.25,-0.37041 -5.25,0.95119 0,1.62427 2.67297,2.13305 13.25,2.52208 3.6332,0.13363 4.75,-0.17796 4.75,-1.32529 z m -261,-1 c 0,-1.11111 -1.16667,-1.5 -4.5,-1.5 -3.33333,0 -4.5,0.38889 -4.5,1.5 0,1.11111 1.16667,1.5 4.5,1.5 3.33333,0 4.5,-0.38889 4.5,-1.5 z m 635.99996,0 c 0,-1.11111 -1.1667,-1.5 -4.5,-1.5 -3.3333,0 -4.5,0.38889 -4.5,1.5 0,1.11111 1.1667,1.5 4.5,1.5 3.3333,0 4.5,-0.38889 4.5,-1.5 z m 14,-0.55479 c 0,-1.82333 -0.5263,-2.02046 -4.6718,-1.75 -5.2212,0.34063 -7.0054,2.42619 -2.6375,3.08281 6.3788,0.95891 7.3093,0.78924 7.3093,-1.33281 z m 17,0.55479 c 0,-1.13333 -1.2222,-1.5 -5,-1.5 -4.6467,0 -5.9597,0.70698 -4.3333,2.33333 0.3666,0.36667 2.6166,0.66667 5,0.66667 3.1852,0 4.3333,-0.39744 4.3333,-1.5 z m 29.3616,0 c 0.4641,-1.2093 -0.3873,-1.5 -4.393,-1.5 -3.7499,0 -4.9686,0.36793 -4.9686,1.5 0,1.1057 1.1548,1.5 4.393,1.5 2.9824,0 4.5778,-0.48165 4.9686,-1.5 z m -722.36156,-1 c 0,-1.13333 -1.22222,-1.5 -5,-1.5 -4.64673,0 -5.95969,0.70698 -4.33333,2.33333 0.36666,0.36667 2.61666,0.66667 5,0.66667 3.18518,0 4.33333,-0.39744 4.33333,-1.5 z m 422.81336,-1.75 c -0.24017,-2.49095 -0.83886,-3.32463 -2.56336,-3.56955 -1.97279,-0.28018 -2.25,0.12023 -2.25,3.25 0,3.16438 0.29096,3.56955 2.56336,3.56955 2.2896,0 2.52989,-0.34708 2.25,-3.25 z m -444.81336,0.75 c 0,-1.22222 -1.66667,-1.5 -9,-1.5 -7.33333,0 -9,0.27778 -9,1.5 0,1.22222 1.66667,1.5 9,1.5 7.33333,0 9,-0.27778 9,-1.5 z m 867.56946,-7.07909 c -0.387,-1.542 -1.3268,-2.42091 -2.5886,-2.42091 -1.5896,0 -1.9809,0.67766 -1.9809,3.43045 0,2.79615 0.416,3.48953 2.25,3.75 2.5113,0.35666 3.2323,-1.12277 2.3195,-4.75954 z m -25.9392,2.32909 c -0.3317,-1.2375 -0.6091,-3.0375 -0.6166,-4 -0.01,-1.07878 -0.7808,-1.75 -2.0137,-1.75 -1.6,0 -2,0.66667 -2,3.33333 0,3.84432 0.5786,4.66667 3.2833,4.66667 1.5342,0 1.8214,-0.47976 1.347,-2.25 z m 35.3697,-1.25 c 0,-2.83333 -0.381,-3.5 -2,-3.5 -1.619,0 -2,0.66667 -2,3.5 0,2.83333 0.381,3.5 2,3.5 1.619,0 2,-0.66667 2,-3.5 z m -473.99996,-1 c 0,-3.06667 -0.30952,-3.5 -2.5,-3.5 -2.57278,0 -2.91183,0.86135 -1.86971,4.75 0.35467,1.32345 1.37854,2.25 2.48634,2.25 1.48576,0 1.88337,-0.73891 1.88337,-3.5 z m 447.99996,0.46862 c 0,-1.80973 -0.6219,-3.27003 -1.5431,-3.62354 -1.914,-0.73447 -2.0265,-0.59715 -2.7883,3.40492 -0.563,2.95788 -0.3961,3.25 1.8564,3.25 2.089,0 2.475,-0.47274 2.475,-3.03138 z M 86.791194,460.10649 c 0.278525,-2.82027 0.02841,-3.17299 -2.25,-3.17299 -2.165234,0 -2.563358,0.453 -2.563358,2.91667 0,5.05515 4.316733,5.28502 4.813358,0.25632 z m 949.061606,2.20201 c 4.816,-0.9632 3.7014,-2.375 -1.875,-2.375 -3.7778,0 -5,0.36667 -5,1.5 0,1.61634 1.9362,1.86277 6.875,0.875 z m -590.29317,-1.375 c 5.51877,0 7.41821,-0.34173 7.41821,-1.33463 0,-1.03777 -1.835,-1.24438 -8.25,-0.92889 -9.50816,0.4676 -11.13155,0.83714 -10.21223,2.32463 0.36549,0.59138 1.33082,0.81956 2.14517,0.50706 0.81435,-0.31249 4.81883,-0.56817 8.89885,-0.56817 z m 654.41817,-0.5575 c 0,-1.21026 -0.9302,-1.48894 -4.1723,-1.25 -5.9664,0.43973 -6.313,2.8075 -0.411,2.8075 3.4826,0 4.5833,-0.37405 4.5833,-1.5575 z m 215,-0.92337 c 0,-2.37238 -0.2077,-2.45613 -4.75,-1.91506 -6.439,0.76701 -7.25,1.08744 -7.25,2.86455 0,1.20502 1.2787,1.53138 6,1.53138 5.721,0 6,-0.11536 6,-2.48087 z m 39,-0.14413 c 0,-2.40667 -0.2599,-2.57302 -3.125,-2 -1.7187,0.34375 -4.4187,0.625 -6,0.625 -2.2083,0 -2.875,0.46377 -2.875,2 0,1.77778 0.6667,2 6,2 5.8095,0 6,-0.0833 6,-2.625 z m -935.58175,1.01801 c 3.04036,-1.16669 1.5449,-2.39301 -2.91821,-2.39301 -3.33333,0 -4.5,0.38889 -4.5,1.5 0,1.5582 4.32726,2.07912 7.41821,0.89301 z m 262.58179,-0.89301 c 0,-1.22222 -1.66667,-1.5 -9,-1.5 -7.33333,0 -9,0.27778 -9,1.5 0,1.22222 1.66667,1.5 9,1.5 7.33333,0 9,-0.27778 9,-1.5 z m 374.99996,-1.20768 c 0,-0.9627 -0.5708,-1.28725 -1.5818,-0.89931 -0.87,0.33385 -2.895,0.60699 -4.5,0.60699 -1.6768,0 -2.9182,0.53481 -2.9182,1.25721 0,0.87637 1.3631,1.14879 4.5,0.8993 3.1833,-0.25318 4.5,-0.79864 4.5,-1.86419 z m 275.75,2.07739 c 1.3234,-0.35467 2.25,-1.37854 2.25,-2.48634 0,-2.05127 -1.7541,-2.31523 -8.25,-1.24152 -2.7748,0.45864 -3.75,1.10594 -3.75,2.48899 0,1.49568 0.7493,1.86643 3.75,1.85551 2.0625,-0.008 4.7625,-0.285 6,-0.61664 z m 54,0 c 1.3234,-0.35467 2.25,-1.37854 2.25,-2.48634 0,-2.05127 -1.7541,-2.31523 -8.25,-1.24152 -2.7748,0.45864 -3.75,1.10594 -3.75,2.48899 0,1.49568 0.7493,1.86643 3.75,1.85551 2.0625,-0.008 4.7625,-0.285 6,-0.61664 z m 38,0 c 1.3234,-0.35467 2.25,-1.37854 2.25,-2.48634 0,-2.05127 -1.7541,-2.31523 -8.25,-1.24152 -2.7748,0.45864 -3.75,1.10594 -3.75,2.48899 0,1.49568 0.7493,1.86643 3.75,1.85551 2.0625,-0.008 4.7625,-0.285 6,-0.61664 z M 393.97784,457.39568 c 0,-0.97053 -1.02673,-1.19341 -3.75,-0.81406 -5.09498,0.70975 -6.46275,1.19863 -5.90015,2.10892 0.83581,1.35238 9.65015,0.16966 9.65015,-1.29486 z m 675.99996,1.03782 c 0,-1.58292 -3.5867,-1.98543 -7.75,-0.86971 -3.9444,1.05706 -2.4211,2.36971 2.75,2.36971 3.7778,0 5,-0.36667 5,-1.5 z m 17,-0.125 c 0,-1.28667 -0.6506,-1.49487 -3.125,-1 -1.7187,0.34375 -3.9687,0.625 -5,0.625 -1.0312,0 -1.875,0.45 -1.875,1 0,0.55 2.25,1 5,1 3.9487,0 5,-0.34167 5,-1.625 z m 30,0 c 0,-1.28667 -0.6506,-1.49487 -3.125,-1 -1.7187,0.34375 -3.9687,0.625 -5,0.625 -1.0312,0 -1.875,0.45 -1.875,1 0,0.55 2.25,1 5,1 3.9487,0 5,-0.34167 5,-1.625 z m -751.74996,-0.36135 c 5.5274,-0.0112 6.75,-0.30472 6.75,-1.62064 0,-1.05452 -0.5438,-1.39831 -1.58179,-1 -0.86998,0.33385 -4.91998,0.60699 -9,0.60699 -6.16516,0 -7.41821,0.27307 -7.41821,1.61663 0,1.1885 0.59587,1.45695 2.25,1.01366 1.2375,-0.33164 5.2875,-0.60913 9,-0.61664 z m 1040.74996,-1.63028 c 0,-2.22554 -0.3363,-2.52651 -2.25,-2.01366 -1.2375,0.33164 -3.7125,0.60913 -5.5,0.61664 -2.5788,0.0108 -3.25,0.42671 -3.25,2.01365 0,1.75758 0.6667,2 5.5,2 5.2654,0 5.5,-0.11162 5.5,-2.61663 z M 86.977836,448.55013 c 0,-2.50874 -0.502048,-3.51466 -1.942095,-3.89124 -2.4772,-0.6478 -3.057905,-0.0259 -3.057905,3.27461 0,3.14273 0.678674,4 3.166667,4 1.416533,0 1.833333,-0.76919 1.833333,-3.38337 z m 9.813358,-0.44364 c 0.278525,-2.82027 0.02841,-3.17299 -2.25,-3.17299 -2.165234,0 -2.563358,0.453 -2.563358,2.91667 0,5.05515 4.316733,5.28502 4.813358,0.25632 z m 1003.186606,1.434 c 0,-1.68342 -2.1546,-2.60699 -6.0818,-2.60699 -4.1392,0 -3.8601,2.75639 0.3318,3.2766 1.7875,0.22183 3.8125,0.47534 4.5,0.56336 0.6875,0.088 1.25,-0.46682 1.25,-1.23297 z M 419.97784,447.9335 c 0,-1.70909 -0.66667,-2 -4.58333,-2 -5.71938,0 -5.60433,2.21408 0.1615,3.10809 2.15701,0.33446 4.03433,0.67196 4.17183,0.75 0.1375,0.0781 0.25,-0.75809 0.25,-1.85809 z m 33,0.5 c 0,-1.16312 -1.31944,-1.5 -5.875,-1.5 -3.23125,0 -7.28125,-0.28125 -9,-0.625 -2.43275,-0.48655 -3.125,-0.27906 -3.125,0.93664 0,1.70578 2.69709,2.26244 12.25,2.52832 4.51557,0.12568 5.75,-0.16198 5.75,-1.33996 z m 228.75205,-0.25 c 0.31242,-0.94189 -1.94759,-1.25 -9.16872,-1.25 -8.05195,0 -9.58333,0.25151 -9.58333,1.57395 0,1.34103 1.35676,1.526 9.16872,1.25 6.20385,-0.2192 9.30279,-0.72816 9.58333,-1.57395 z m 374.24791,-0.75 c 0,-0.99066 -0.9909,-1.5 -2.9182,-1.5 -1.605,0 -3.63,-0.27314 -4.5,-0.60699 -1.0187,-0.39089 -1.5818,-0.061 -1.5818,0.92668 0,1.63508 1.8081,2.37694 6.25,2.56431 1.8293,0.0772 2.75,-0.38618 2.75,-1.384 z m 14,0 c 0,-1.13333 -1.2222,-1.5 -5,-1.5 -4.6467,0 -5.9597,0.70698 -4.3333,2.33333 0.3666,0.36667 2.6166,0.66667 5,0.66667 3.1852,0 4.3333,-0.39744 4.3333,-1.5 z m 17,0 c 0,-1.13333 -1.2222,-1.5 -5,-1.5 -3.7778,0 -5,0.36667 -5,1.5 0,1.13333 1.2222,1.5 5,1.5 3.7778,0 5,-0.36667 5,-1.5 z m -715.16156,-2.95818 c -0.18612,-0.1659 -4.2759,-0.50001 -9.0884,-0.74246 -6.5641,-0.3307 -8.75,-0.12886 -8.75,0.80795 0,0.76709 2.02506,1.46962 5.25,1.82131 10.44286,1.13884 12.24217,1.10212 12.5884,-0.25689 0.18612,-0.73055 0.18612,-1.46401 0,-1.62991 z m 22.1616,1.95818 c 0,-0.99066 -0.99091,-1.5 -2.91821,-1.5 -1.60502,0 -3.63002,-0.27314 -4.5,-0.60699 -1.01865,-0.39089 -1.58179,-0.061 -1.58179,0.92668 0,1.63508 1.80813,2.37694 6.25,2.56431 1.82933,0.0772 2.75,-0.38618 2.75,-1.384 z m 920.99996,-3 c 0,-2.38889 -0.2667,-2.5 -6,-2.5 -5.7333,0 -6,0.11111 -6,2.5 0,2.38889 0.2667,2.5 6,2.5 5.7333,0 6,-0.11111 6,-2.5 z m 39,0 c 0,-2.38889 -0.2667,-2.5 -6,-2.5 -5.7333,0 -6,0.11111 -6,2.5 0,2.38889 0.2667,2.5 6,2.5 5.7333,0 6,-0.11111 6,-2.5 z m -20,-1 c 0,-2.38889 -0.2667,-2.5 -6,-2.5 -5.1515,0 -6,0.25926 -6,1.83333 0,2.76143 0.8531,3.16667 6.6667,3.16667 5.0222,0 5.3333,-0.14583 5.3333,-2.5 z m 54,0 c 0,-2.38889 -0.2667,-2.5 -6,-2.5 -5.1515,0 -6,0.25926 -6,1.83333 0,2.76143 0.8531,3.16667 6.6667,3.16667 5.0222,0 5.3333,-0.14583 5.3333,-2.5 z m 38,0 c 0,-2.36364 -0.3,-2.5 -5.5,-2.5 -4.6667,0 -5.5,0.27778 -5.5,1.83333 0,2.72706 0.8561,3.16667 6.1667,3.16667 4.4889,0 4.8333,-0.17816 4.8333,-2.5 z m -20,-1.5 c 0,-2.9697 -0.056,-3 -5.5,-3 -5.1687,0 -5.5,0.14745 -5.5,2.44774 0,2.23953 0.4466,2.47898 5.25,2.81502 2.8875,0.202 5.3625,0.45052 5.5,0.55226 0.1375,0.10174 0.25,-1.16502 0.25,-2.81502 z m -952.99996,-4 c 0,-1.85185 -0.66667,-2 -9,-2 -7.22675,0 -9,0.28787 -9,1.46107 0,1.14471 1.8946,1.53323 8.75,1.79436 4.8125,0.18332 8.8625,0.42584 9,0.53893 0.1375,0.1131 0.25,-0.69436 0.25,-1.79436 z m 227.81207,0.25 c -0.28299,-1.4802 -1.68183,-1.79454 -9.07332,-2.03893 -5.31562,-0.17576 -8.73875,0.10028 -8.73875,0.70468 0,1.06095 3.71279,1.87297 11,2.4058 2.475,0.18097 5.0955,0.40765 5.82332,0.50374 0.76237,0.10065 1.1815,-0.56712 0.98875,-1.57529 z m 419.18789,0.25 c 0,-1.11111 -1.1667,-1.5 -4.5,-1.5 -3.3333,0 -4.5,0.38889 -4.5,1.5 0,1.11111 1.1667,1.5 4.5,1.5 3.3333,0 4.5,-0.38889 4.5,-1.5 z m -679.99996,-1.28571 c 0,-1.44974 -0.84667,-1.78572 -4.5,-1.78572 -4.76086,0 -6.38547,2.06917 -2.25,2.8657 5.10646,0.98354 6.75,0.72058 6.75,-1.07998 z m 664.08176,0.78571 c 1.8705,0 2.9182,-0.51594 2.9182,-1.43713 0,-1.08688 -0.9139,-1.30982 -3.75,-0.91475 -5.3967,0.75178 -6.461,1.20138 -5.7122,2.41299 0.3655,0.59138 1.3308,0.81956 2.1451,0.50706 0.8144,-0.31249 2.7939,-0.56817 4.3989,-0.56817 z m -996.081764,-3.5 c 0,-2.76647 -0.396439,-3.5 -1.891592,-3.5 -1.19282,0 -2.127645,0.94051 -2.530594,2.54599 -0.787068,3.13593 -0.0528,4.45401 2.481203,4.45401 1.5516,0 1.940983,-0.70214 1.940983,-3.5 z m 10,0.11658 c 0,-2.81488 -0.420097,-3.46373 -2.5,-3.86133 -2.317548,-0.44303 -2.5,-0.1961 -2.5,3.38342 0,3.45209 0.264964,3.86133 2.5,3.86133 2.174069,0 2.5,-0.44111 2.5,-3.38342 z m 296.000004,1.38342 c 0,-1.7037 -0.66667,-2 -4.5,-2 -3.25361,0 -4.5,0.39954 -4.5,1.4425 0,0.97035 1.39109,1.5678 4.25,1.82529 2.3375,0.21054 4.3625,0.46141 4.5,0.5575 0.1375,0.0961 0.25,-0.72529 0.25,-1.82529 z m 661.99996,0.5 c 0,-1.11111 -1.1667,-1.5 -4.5,-1.5 -3.3333,0 -4.5,0.38889 -4.5,1.5 0,1.11111 1.1667,1.5 4.5,1.5 3.3333,0 4.5,-0.38889 4.5,-1.5 z m 14,-0.125 c 0,-1.28667 -0.6506,-1.49487 -3.125,-1 -1.7187,0.34375 -3.9687,0.625 -5,0.625 -1.0312,0 -1.875,0.45 -1.875,1 0,0.55 2.25,1 5,1 3.9487,0 5,-0.34167 5,-1.625 z m -697.99996,-1.375 c 0,-1.85185 -0.66667,-2 -9,-2 -7.21793,0 -9,0.28868 -9,1.45794 0,1.12251 1.783,1.53634 7.75,1.79875 4.2625,0.18745 8.3125,0.43138 9,0.54207 0.6875,0.11068 1.25,-0.69876 1.25,-1.79876 z m 938.58176,-4 c 4.0157,0 4.4182,-0.22203 4.4182,-2.43713 0,-2.2388 -0.3052,-2.39628 -3.75,-1.93522 -7.4108,0.99188 -8.25,1.34773 -8.25,3.49839 0,1.49308 0.4507,1.91501 1.5818,1.48095 0.87,-0.33385 3.57,-0.60699 6,-0.60699 z m 39,0 c 4.0157,0 4.4182,-0.22203 4.4182,-2.43713 0,-2.2388 -0.3052,-2.39628 -3.75,-1.93522 -7.4108,0.99188 -8.25,1.34773 -8.25,3.49839 0,1.49308 0.4507,1.91501 1.5818,1.48095 0.87,-0.33385 3.57,-0.60699 6,-0.60699 z m -15.5818,-3.5 c 0,-2.72725 -0.3733,-2.82178 -7.3604,-1.86408 -3.6327,0.49792 -4.6396,1.04046 -4.6396,2.5 0,1.61165 0.8125,1.86408 6,1.86408 5.7333,0 6,-0.11111 6,-2.5 z m 54,0 c 0,-2.72725 -0.3733,-2.82178 -7.3604,-1.86408 -3.6327,0.49792 -4.6396,1.04046 -4.6396,2.5 0,1.61165 0.8125,1.86408 6,1.86408 5.7333,0 6,-0.11111 6,-2.5 z m 14.4147,0.5 c 3.785,0 4.233,-0.24552 4.0861,-2.23939 -0.1449,-1.96617 -0.643,-2.20323 -4.0829,-1.94303 -5.9291,0.44848 -7.4179,1.12221 -7.4179,3.3568 0,1.449 0.458,1.86384 1.5818,1.43261 0.87,-0.33385 3.4948,-0.60699 5.8329,-0.60699 z m -949.41466,-1.5 c 0,-1.22222 -1.66667,-1.5 -9,-1.5 -7.33333,0 -9,0.27778 -9,1.5 0,1.22222 1.66667,1.5 9,1.5 7.33333,0 9,-0.27778 9,-1.5 z m 228,0.5 c 0,-0.55 0.002,-1.2763 0.004,-1.61399 0.002,-0.3377 -4.04796,-0.74532 -9,-0.90584 -7.0308,-0.22789 -9.00369,0.004 -9.00369,1.0565 0,0.85956 1.54062,1.4871 4.25,1.73112 8.82787,0.79514 13.74969,0.69929 13.74969,-0.26779 z m -260,-1.5 c 0,-1.58292 -3.58673,-1.98543 -7.75,-0.86971 -3.94442,1.05706 -2.42112,2.36971 2.75,2.36971 3.77778,0 5,-0.36667 5,-1.5 z m 648.99996,0 c 0,-0.88484 -0.9227,-1.5056 -2.25,-1.51365 -1.2375,-0.008 -3.2625,-0.285 -4.5,-0.61664 -1.6236,-0.4351 -2.25,-0.17227 -2.25,0.94411 0,1.49437 2.0397,2.2649 6.75,2.55 1.3939,0.0844 2.25,-0.43458 2.25,-1.36382 z m 17,0.10069 c 0,-0.93874 -1.4811,-1.5171 -4.5,-1.7572 -2.9809,-0.23709 -4.5,0.0384 -4.5,0.81597 0,1.50323 1.6765,2.16264 5.75,2.26159 2.1559,0.0524 3.25,-0.39212 3.25,-1.32036 z M 97.977836,421.4335 c 0,-2.83333 -0.380952,-3.5 -2,-3.5 -1.1,0 -2.006145,0.5625 -2.013655,1.25 -0.0075,0.6875 -0.284994,2.2625 -0.616631,3.5 -0.512853,1.9137 -0.211882,2.25 2.013655,2.25 2.323769,0 2.616631,-0.39173 2.616631,-3.5 z m 296.000004,1.9425 c 0,-1.21026 -0.93018,-1.48894 -4.17228,-1.25 -5.9664,0.43973 -6.31307,2.8075 -0.41105,2.8075 3.4826,0 4.58333,-0.37405 4.58333,-1.5575 z m -21.24756,-1.1925 c 0.30831,-0.93037 -1.63183,-1.25 -7.58732,-1.25 -8.29217,0 -11.16512,0.55181 -11.16512,2.14451 0,1.47261 18.25662,0.60175 18.75244,-0.89451 z m 309.24756,-8.75 c 0,-1.67034 -4.5763,-1.95391 -13.75,-0.85202 -8.45692,1.0158 -6.04242,2.35202 4.25,2.35202 7.77778,0 9.5,-0.27193 9.5,-1.5 z m 404.99996,-0.5 c 0,-1.7037 -0.6667,-2 -4.5,-2 -5.8011,0 -6.4153,2.67893 -0.75,3.27153 2.0625,0.21575 4.0875,0.46791 4.5,0.56037 0.4125,0.0924 0.75,-0.7319 0.75,-1.8319 z m 228,-0.36916 c 0,-1.96083 -0.6463,-2.47598 -3.75,-2.98899 -5.8681,-0.96993 -6.9807,-0.77976 -7.5207,1.28545 -0.4019,1.53653 0.2334,2.12383 3.1333,2.89664 6.4045,1.70679 8.1374,1.45272 8.1374,-1.1931 z m 39,-0.037 c 0,-2.12606 -0.5767,-2.48548 -4.9539,-3.0875 -5.2552,-0.72278 -7.0461,-0.22631 -7.0461,1.95334 0,1.32915 5.4145,3.23782 9.75,3.43697 1.7386,0.0799 2.25,-0.44358 2.25,-2.30281 z M 70.977836,410.4335 c 0,-3.06667 -0.309524,-3.5 -2.5,-3.5 -2.190476,0 -2.5,0.43333 -2.5,3.5 0,3.06667 0.309524,3.5 2.5,3.5 2.190476,0 2.5,-0.43333 2.5,-3.5 z m 34.824184,-3.62982 c -2.64823,-1.67902 -3.82418,-0.89174 -3.82418,2.56027 0,2.79615 0.41603,3.48953 2.25,3.75 1.83272,0.26029 2.31012,-0.21738 2.57418,-2.57559 0.18303,-1.63448 -0.25241,-3.2607 -1,-3.73468 z m 964.17578,5.62982 c 0,-1.11111 -1.1667,-1.5 -4.5,-1.5 -3.3333,0 -4.5,0.38889 -4.5,1.5 0,1.11111 1.1667,1.5 4.5,1.5 3.3333,0 4.5,-0.38889 4.5,-1.5 z m 264,-0.98095 c 0,-2.62823 -1.2337,-3.20525 -8,-3.74161 -2.9022,-0.23006 -3.5512,0.0814 -3.8,1.82359 -0.2967,2.07749 0.6632,2.4482 11.05,4.2676 0.4125,0.0722 0.75,-0.98506 0.75,-2.34958 z m 54,0 c 0,-2.54828 -0.2647,-2.68245 -7.75,-3.92817 -2.4422,-0.40644 -3.25,-0.17426 -3.25,0.93412 0,0.81125 -0.1125,1.80932 -0.25,2.21794 -0.1981,0.58872 6.7535,2.68152 10.5,3.16106 0.4125,0.0528 0.75,-1.02043 0.75,-2.38495 z m 38,-0.0504 c 0,-2.75898 -0.4409,-3.0135 -6.75,-3.89706 -3.9863,-0.55827 -4.25,-0.44606 -4.25,1.80844 0,2.31116 2.0421,3.20804 10.25,4.50178 0.4125,0.065 0.75,-1.0209 0.75,-2.41316 z m -19.5568,-1.71865 c -0.3804,-1.2375 -0.7564,-2.33316 -0.8356,-2.4348 -0.079,-0.10164 -2.4982,-0.49711 -5.3757,-0.87883 -4.8753,-0.64672 -5.2319,-0.55022 -5.2319,1.41575 0,1.48787 0.8106,2.28856 2.75,2.7163 1.5125,0.33359 3.2,0.75663 3.75,0.9401 0.55,0.18347 2.0428,0.36911 3.3174,0.41253 1.9529,0.0665 2.2086,-0.27488 1.6258,-2.17105 z m -338.025,-7.35699 c 3.0404,-1.16669 1.5449,-2.39301 -2.9182,-2.39301 -3.3333,0 -4.5,0.38889 -4.5,1.5 0,1.5582 4.3273,2.07912 7.4182,0.89301 z m 18.5818,-0.95051 c 0,-1.21026 -0.9302,-1.48894 -4.1723,-1.25 -5.9664,0.43973 -6.313,2.8075 -0.411,2.8075 3.4826,0 4.5833,-0.37405 4.5833,-1.5575 z M 61.977836,398.4335 c 0,-1.925 -0.413196,-3.5 -0.918213,-3.5 -0.505016,0 -1.630016,-0.27314 -2.5,-0.60699 -1.258476,-0.48292 -1.581787,0.11528 -1.581787,2.92668 0,3.34512 0.611173,4.0015 4.25,4.56431 0.4125,0.0638 0.75,-1.459 0.75,-3.384 z m 36,-1 c 0,-2.83333 -0.380952,-3.5 -2,-3.5 -1.304908,0 -2,0.66667 -2,1.91821 0,1.05502 -0.273145,2.63002 -0.606989,3.5 -0.457837,1.19311 0.03361,1.58179 2,1.58179 2.312749,0 2.606989,-0.39503 2.606989,-3.5 z m 1216.999964,-1.5 c 0,-2.9697 -0.056,-3 -5.5,-3 -5.1619,0 -5.5,0.1498 -5.5,2.43664 0,1.99963 0.5829,2.50898 3.25,2.83996 7.6738,0.95231 7.75,0.92991 7.75,-2.2766 z m 39,-0.0499 0,-3.04991 -5.75,0.29991 c -5.0435,0.26305 -5.7883,0.56891 -6.0616,2.48939 -0.2726,1.91543 0.228,2.23778 4,2.57529 2.3714,0.21219 5.0991,0.46442 6.0616,0.56051 1.3223,0.13201 1.75,-0.57064 1.75,-2.87519 z m -20,-1.4501 c 0,-2.38889 -0.2667,-2.5 -6,-2.5 -5.7333,0 -6,0.11111 -6,2.5 0,2.38889 0.2667,2.5 6,2.5 5.7333,0 6,-0.11111 6,-2.5 z m 54,0 c 0,-2.38889 -0.2667,-2.5 -6,-2.5 -5.1515,0 -6,0.25926 -6,1.83333 0,2.76143 0.8531,3.16667 6.6667,3.16667 5.0222,0 5.3333,-0.14583 5.3333,-2.5 z m 38,0 c 0,-2.36364 -0.3,-2.5 -5.5,-2.5 -5.2,0 -5.5,0.13636 -5.5,2.5 0,2.36364 0.3,2.5 5.5,2.5 5.2,0 5.5,-0.13636 5.5,-2.5 z m -19.5,-1.5 c 0,-2.27285 -0.3634,-2.48754 -4,-2.36291 -7.2709,0.2492 -7.5,0.31944 -7.5,2.29955 0,1.43135 0.848,2.04719 3.25,2.36033 6.5912,0.85926 8.25,0.39741 8.25,-2.29697 z m -57.1396,-10.63592 c 3.6327,-0.49792 4.6396,-1.04046 4.6396,-2.5 0,-1.38652 -0.7365,-1.86408 -2.875,-1.86408 -5.7244,0 -9.125,1.1646 -9.125,3.125 0,2.06693 0.5927,2.1667 7.3604,1.23908 z m -15.3604,-3.92535 c 0,-2.47814 -0.1542,-2.54064 -4.75,-1.92535 -6.4672,0.86581 -7.25,1.1849 -7.25,2.95524 0,1.20502 1.2787,1.53138 6,1.53138 5.7716,0 6,-0.0975 6,-2.56127 z m 54,-0.0637 c 0,-2.40667 -0.2599,-2.57302 -3.125,-2 -1.7187,0.34375 -4.1413,0.625 -5.3834,0.625 -1.4173,0 -2.4531,0.74479 -2.7813,2 -0.4795,1.83329 -0.031,2 5.3833,2 5.7085,0 5.9064,-0.088 5.9064,-2.625 z m 39,-0.006 c 0,-2.48361 -0.2099,-2.59616 -3.75,-2.01101 -2.0625,0.34091 -4.7625,0.62479 -6,0.63084 -1.5797,0.008 -2.25,0.60686 -2.25,2.01101 0,1.77778 0.6667,2 6,2 5.8129,0 6,-0.082 6,-2.63084 z m -23.75,0.98899 c 2.7748,-0.45864 3.75,-1.10594 3.75,-2.48899 0,-1.39212 -0.7338,-1.86916 -2.875,-1.86916 -5.7244,0 -9.125,1.1646 -9.125,3.125 0,2.04203 1.7625,2.30547 8.25,1.23315 z M 61.964181,377.6835 c -0.03858,-3.53213 -1.350857,-5.75 -3.402176,-5.75 -1.905526,0 -2.130702,0.44427 -1.773962,3.5 0.339726,2.91 0.811588,3.5 2.799199,3.5 1.314827,0 2.384449,-0.5625 2.376939,-1.25 z m 18.013655,-2.75 c 0,-3.33333 -0.333333,-4 -2,-4 -1.609756,0 -2,0.66667 -2,3.41667 0,3.04488 0.872487,4.25412 3.25,4.50438 0.4125,0.0434 0.75,-1.72105 0.75,-3.92105 z m 596.000004,-17 c 0,-3.33333 -0.33333,-4 -2,-4 -1.66667,0 -2,0.66667 -2,4 0,3.33333 0.33333,4 2,4 1.66667,0 2,-0.66667 2,-4 z m 10,0.11658 c 0,-3.34821 -0.34455,-3.94929 -2.5,-4.36133 -2.35757,-0.45068 -2.5,-0.22944 -2.5,3.88342 0,3.98542 0.21548,4.36133 2.5,4.36133 2.23749,0 2.5,-0.40777 2.5,-3.88342 z m -603.000004,-9.0814 c 0,-1.90777 -0.689621,-3.33389 -1.934259,-4 -2.851544,-1.5261 -3.065741,-1.35901 -3.065741,2.3915 0,3.23074 0.636646,3.89845 4.25,4.45732 0.4125,0.0638 0.75,-1.21817 0.75,-2.84882 z m 603.000004,-4.42819 c 0,-2.17149 -0.56946,-3.61153 -1.58179,-4 -2.39767,-0.92007 -2.41821,-0.89125 -2.41821,3.39301 0,3.33333 0.33333,4 2,4 1.60704,0 2,-0.66667 2,-3.39301 z M 72.977836,336.4335 c 0,-2.83333 -0.380952,-3.5 -2,-3.5 -1.1,0 -2.006145,0.5625 -2.013655,1.25 -0.0075,0.6875 -0.284994,2.2625 -0.616631,3.5 -0.512853,1.9137 -0.211882,2.25 2.013655,2.25 2.323769,0 2.616631,-0.39173 2.616631,-3.5 z m 586.810374,-4.75 c 0.28452,-3.43772 0.0971,-3.75 -2.25,-3.75 -2.32772,0 -2.56037,0.36978 -2.56037,4.06955 0,3.64829 0.23291,4.03647 2.25,3.75 1.80733,-0.25668 2.31106,-1.05733 2.56037,-4.06955 z m 35.18963,-0.25 c 0,-1.925 -0.4132,-3.5 -0.91821,-3.5 -0.50502,0 -1.63002,-0.27314 -2.5,-0.60699 -1.28415,-0.49277 -1.58179,0.16581 -1.58179,3.5 0,3.71412 0.23915,4.10699 2.5,4.10699 2.19048,0 2.5,-0.43333 2.5,-3.5 z m -11,-1 c 0,-2.83333 -0.38095,-3.5 -2,-3.5 -1.61905,0 -2,0.66667 -2,3.5 0,2.83333 0.38095,3.5 2,3.5 1.61905,0 2,-0.66667 2,-3.5 z m -32.76587,-10.2873 c 0.75232,-2.87688 -0.9669,-6.2127 -3.20191,-6.2127 -1.70426,0 -2.03222,0.64552 -2.03222,4 0,3.5478 0.26944,4 2.38337,4 1.44782,0 2.56683,-0.70157 2.85076,-1.7873 z m 34.76587,-3.32933 c 0,-3.2167 -0.34334,-3.88337 -2,-3.88337 -1.69741,0 -2,0.66667 -2,4.40638 0,3.91405 0.22346,4.34794 2,3.88337 1.56687,-0.40975 2,-1.36402 2,-4.40638 z m -11.18963,0.36663 c -0.24931,-3.01222 -0.75304,-3.81287 -2.56037,-4.06955 -2.01709,-0.28647 -2.25,0.10171 -2.25,3.75 0,3.69977 0.23265,4.06955 2.56037,4.06955 2.34715,0 2.53452,-0.31228 2.25,-3.75 z m -24.20043,-24.45029 c -0.59211,-2.96055 -2.03346,-4.74711 -3.85994,-4.7844 -0.4125,-0.008 -0.75,1.78469 -0.75,3.98469 0,3.65079 0.22917,4 2.625,4 2.41984,0 2.57498,-0.25012 1.98494,-3.20029 z m 18.39006,-0.79971 c 0,-3.6 -0.25,-4 -2.5,-4 -2.25,0 -2.5,0.4 -2.5,4 0,3.6 0.25,4 2.5,4 2.25,0 2.5,-0.4 2.5,-4 z m 8,-5 c 0,-3.6 -0.25,-4 -2.5,-4 -2.71607,0 -2.80418,0.22909 -1.875,4.875 0.43333,2.16667 1.2,3.125 2.5,3.125 1.52083,0 1.875,-0.75556 1.875,-4 z m 18.63029,1.75 c -0.33164,-1.2375 -0.60913,-3.0375 -0.61664,-4 -0.008,-1.07878 -0.78076,-1.75 -2.01365,-1.75 -1.60976,0 -2,0.66667 -2,3.41667 0,3.27798 0.90595,4.33335 3.86663,4.50438 0.93896,0.0542 1.17794,-0.62516 0.76366,-2.17105 z m -24.63029,-26.75 c 0,-3.6 -0.25,-4 -2.5,-4 -2.10175,0 -2.5,0.46998 -2.5,2.95031 0,2.63959 1.93551,4.92544 4.25,5.01928 0.4125,0.0167 0.75,-1.76959 0.75,-3.96959 z m -11.41121,0.50224 c 0.84247,-3.35666 -0.0727,-5.3998 -2.27693,-5.0831 -1.30162,0.18702 -1.89926,1.2911 -2.12223,3.9206 -0.26452,3.11965 -0.009,3.66026 1.73095,3.66026 1.34293,0 2.2558,-0.85455 2.66821,-2.49776 z m 35.41121,-1.50224 c 0,-3.6 -0.25,-4 -2.5,-4 -2.17886,0 -2.5,0.43889 -2.5,3.41667 0,1.87916 0.5625,3.64364 1.25,3.92105 3.03026,1.22273 3.75,0.58212 3.75,-3.33772 z m -33.18498,-12.32807 c 0.28815,-3.50155 0.11755,-3.80009 -2,-3.5 -1.89092,0.26797 -2.37273,1.02935 -2.63004,4.15614 -0.28815,3.50155 -0.11755,3.80009 2,3.5 1.89092,-0.26797 2.37273,-1.02935 2.63004,-4.15614 z m -10.81502,-0.55535 c 0,-3.39254 -0.33014,-3.94654 -2.61181,-4.3827 -2.49683,-0.4773 -2.58643,-0.34293 -2.03543,3.0525 0.52648,3.24429 1.96181,5.15879 3.89724,5.19831 0.4125,0.008 0.75,-1.73223 0.75,-3.86811 z m 35,-1.11658 c 0,-3.33333 -0.33333,-4 -2,-4 -1.66667,0 -2,0.66667 -2,4 0,3.33333 0.33333,4 2,4 1.66667,0 2,-0.66667 2,-4 z m -26.18963,-12.3273 c 0.28349,-3.35478 0.0887,-3.6727 -2.25,-3.6727 -2.24757,0 -2.56037,0.41741 -2.56037,3.41667 0,3.2283 1.25214,4.7211 3.5,4.1727 0.55,-0.13418 1.13966,-1.89668 1.31037,-3.91667 z m 0.18963,-13.6727 c 0,-3.64754 -0.23056,-4 -2.61663,-4 -2.22554,0 -2.52651,0.3363 -2.01366,2.25 0.33164,1.2375 0.60913,3.0375 0.61664,4 0.008,1.07878 0.78076,1.75 2.01365,1.75 1.66667,0 2,-0.66667 2,-4 z m 9,0 c 0,-3.33333 -0.33333,-4 -2,-4 -1.66667,0 -2,0.66667 -2,4 0,3.33333 0.33333,4 2,4 1.66667,0 2,-0.66667 2,-4 z"
     id="path3074"
     inkscape:connector-curvature="0" />
</svg>
