<?xml version="1.0" encoding="UTF-8" standalone="no"?>
<!-- Created with Inkscape (http://www.inkscape.org/) -->

<svg
   xmlns:dc="http://purl.org/dc/elements/1.1/"
   xmlns:cc="http://creativecommons.org/ns#"
   xmlns:rdf="http://www.w3.org/1999/02/22-rdf-syntax-ns#"
   xmlns:svg="http://www.w3.org/2000/svg"
   xmlns="http://www.w3.org/2000/svg"
   xmlns:sodipodi="http://sodipodi.sourceforge.net/DTD/sodipodi-0.dtd"
   xmlns:inkscape="http://www.inkscape.org/namespaces/inkscape"
   id="svg3074"
   version="1.1"
   inkscape:version="0.48.4 r9939"
   width="450"
   height="276"
   sodipodi:docname="austin2.png">
  <metadata
     id="metadata3080">
    <rdf:RDF>
      <cc:Work
         rdf:about="">
        <dc:format>image/svg+xml</dc:format>
        <dc:type
           rdf:resource="http://purl.org/dc/dcmitype/StillImage" />
        <dc:title></dc:title>
      </cc:Work>
    </rdf:RDF>
  </metadata>
  <defs
     id="defs3078" />
  <sodipodi:namedview
     pagecolor="#ffffff"
     bordercolor="#666666"
     borderopacity="1"
     objecttolerance="10"
     gridtolerance="10"
     guidetolerance="10"
     inkscape:pageopacity="0"
     inkscape:pageshadow="2"
     inkscape:window-width="1680"
     inkscape:window-height="1026"
     id="namedview3076"
     showgrid="false"
     inkscape:zoom="3.1594203"
     inkscape:cx="225"
     inkscape:cy="138"
     inkscape:window-x="1920"
     inkscape:window-y="24"
     inkscape:window-maximized="1"
     inkscape:current-layer="svg3074" />
  <path
     style="fill:#808080"
     d="m 19.885834,277.31294 c 0.322377,-0.32238 -1.171293,-3.80988 -3.319268,-7.75 -4.742867,-8.70005 -4.722603,-8.24834 -0.433539,-9.66386 4.595618,-1.51669 4.886516,-0.52946 -5.968595,-20.25596 -5.7768282,-10.49797 -9.109193,-17.56625 -8.5468043,-18.12864 0.5589833,-0.55898 0.561622,-1.59477 0.0067,-2.63165 -0.73033811,-1.36465 -0.216983,-2.08581 2.5427155,-3.572 2.3782684,-1.28079 3.2949958,-2.37511 2.9363237,-3.50519 -0.3275817,-1.03212 0.4175829,-2.25833 2.0040887,-3.29785 l 2.5255684,-1.65482 0,-9.39342 0,-9.39341 8.749999,4.78315 c 7.205061,3.93862 9.10313,4.59456 10.750001,3.71503 1.1,-0.58746 3.575,-1.13444 5.5,-1.21551 1.925,-0.0811 4.246846,-0.47297 5.159658,-0.87089 1.185722,-0.51688 1.854037,-0.11105 2.340342,1.42116 0.374376,1.17955 1.20253,1.93027 1.840342,1.66826 0.637812,-0.26202 1.834658,-0.74164 2.659658,-1.06583 1.138944,-0.44756 4.842114,5.8068 15.384748,25.98361 12.425987,23.78122 14.044515,26.41327 15.405445,25.05234 1.360929,-1.36093 1.277307,-2.18352 -0.795935,-7.82954 -1.274148,-3.46986 -2.393987,-7.49984 -2.488533,-8.9555 -0.09454,-1.45566 -8.155563,-16.18185 -17.913374,-32.72485 -16.77447,-28.43877 -18.500939,-32.12849 -15.033334,-32.12849 1.964966,0 1.963508,-0.005 -2.539423,-8.96103 -3.768006,-7.49419 -3.874729,-7.95017 -2,-8.54519 2.645273,-0.83958 2.513076,-2.12012 -1.035317,-10.02882 -2.800961,-6.24282 -2.893762,-6.81066 -1.30313,-7.97376 1.593997,-1.16556 1.430141,-2.33391 -2.366196,-16.87174 -2.243334,-8.5907 -3.965458,-15.619457 -3.826942,-15.619457 0.138516,0 4.912174,5.634077 10.608129,12.520177 7.470183,9.03105 10.780933,12.33755 11.880072,11.86482 4.143058,-1.78188 5.18847,-0.98414 7.758637,5.92055 1.776278,4.77192 2.941433,6.63954 3.899209,6.25 0.751269,-0.30555 1.987313,-0.80811 2.746765,-1.11681 0.91087,-0.37023 1.765711,0.56571 2.511712,2.75 4.478324,13.11257 7.059524,16.00206 10.880983,12.1806 1.507545,-1.50754 1.701163,-1.45092 2.564497,0.75 0.513611,1.30936 1.513281,3.73066 2.221487,5.38066 0.994706,2.31749 24.801046,62.2235 29.561676,74.38869 0.51413,1.31378 1.18169,2.14177 1.48348,1.83998 0.52108,-0.52108 -32.821627,-103.70668 -37.187314,-115.08348 -0.341984,-0.89119 0.357213,-1.62277 1.927644,-2.01693 l 2.464275,-0.61849 -3.394252,-11.25488 c -1.866835,-6.190189 -3.398919,-11.331632 -3.404627,-11.425432 -0.0057,-0.0938 1.339622,-0.467054 2.989622,-0.829455 3.724156,-0.817962 3.734172,-0.513044 -0.5,-15.220407 -4.007271,-13.919221 -4.055503,-14.279593 -1.911179,-14.279593 1.312915,0 1.529983,-1.042245 1.25,-6.001822 -0.299526,-5.305753 -0.123186,-6.001611 1.520479,-6 1.682512,0.0016 1.822937,-0.71826 1.47687,-7.571386 l -0.38243,-7.573208 2.27313,0.434536 c 2.752812,0.526233 2.765676,0.318733 0.794374,-12.81316 C 82.40874,8.7461269 82.063151,9.4964579 88.107527,11.79086 l 4.856221,1.843388 4.146708,11.319773 c 6.264624,17.10131 10.010714,16.223012 4.566334,-1.070608 C 98.47332,13.707854 98.458366,12.954692 101.32365,6.0971139 l 1.45244,-3.476179 1.52108,2.889074 c 0.83659,1.58899 3.33265,6.4724751 5.54678,10.8521881 l 4.0257,7.963113 2.26542,-2.633705 2.26542,-2.633706 2.75958,6.493032 c 2.45682,5.780687 3.01169,6.429756 5.05761,5.916261 1.9553,-0.490748 2.786,0.239043 5.56974,4.893141 2.6146,4.371316 3.68081,5.367264 5.30865,4.958828 1.88646,-0.473325 2.21564,0.453765 4.45543,12.548126 l 2.41848,13.059211 3.1431,-0.589649 3.14309,-0.589649 1.32216,9.629983 1.32215,9.629983 2.58687,-0.304041 2.58687,-0.304042 4.32611,28.499997 c 6.696,44.11268 5.49001,40.47972 12.76339,38.44853 1.92718,-0.53818 2.23138,0.66181 5.96728,23.53907 l 3.93659,24.10616 4.03272,-0.29688 4.03272,-0.29688 0.3075,-4.25 c 0.19153,-2.6472 0.79451,-4.25 1.59886,-4.25 0.97066,0 1.46556,-3.90455 1.99275,-15.72204 0.38576,-8.64712 1.0807,-15.95962 1.5443,-16.25 0.46361,-0.29038 1.17119,-6.37796 1.57239,-13.52796 0.40121,-7.15 1.05584,-13.225 1.45473,-13.5 0.39889,-0.275 1.01566,-3.875 1.37061,-8 1.10296,-12.818 5.72939,-24.220705 12.09464,-29.809466 l 3.56422,-3.129428 0,-9.530552 c 0,-8.061452 0.29566,-9.826208 1.91803,-11.448582 1.33548,-1.33548 2.20609,-4.296784 2.86645,-9.75 l 0.94843,-7.831969 0.13354,7.435549 c 0.10538,5.86684 0.54403,7.87248 2.07917,9.506567 1.45332,1.546984 2.18367,4.444241 2.88639,11.450161 0.87518,8.725232 1.14976,9.542706 3.93839,11.72514 6.84812,5.359459 12.41988,18.3942 13.78513,32.24938 0.38659,3.92326 1.04865,7.1332 1.47124,7.1332 0.42259,0 1.09372,6.075 1.49139,13.5 0.39768,7.425 1.11878,13.5 1.60245,13.5 0.48366,0 0.87939,7.2 0.87939,16 0,13.55556 0.22917,16 1.5,16 1.13333,0 1.5,1.22222 1.5,5 l 0,5 5.5,0 c 3.87531,0 5.5,-0.38803 5.5,-1.31358 0,-2.98557 3.03636,-24.05611 3.53903,-24.55878 0.29977,-0.29977 2.66362,-0.78862 5.253,-1.08634 l 4.70797,-0.5413 0.88861,-7.25 c 0.79945,-6.52256 1.10836,-7.25 3.07867,-7.25 l 2.19006,0 2.71275,-22.75 c 6.22578,-52.211252 9.62991,-81.280947 9.62991,-82.234985 0,-0.558257 0.9,-1.015012 2,-1.015012 1.49206,0 2,-0.666667 2,-2.625 0,-2.383333 0.27619,-2.569762 3,-2.025 2.32799,0.465598 3,0.2435 3,-0.991497 0,-1.363146 0.9685,-1.497066 6.75,-0.933356 12.48823,1.217633 15.25,1.775675 15.25,3.081408 0,1.504242 2.2046,2.493445 5.55704,2.493445 2.11245,0 2.28645,0.281449 1.48205,2.397177 -1.07874,2.837314 -0.52045,3.602823 2.62758,3.602823 3.076,0 3.44023,-3.719743 -5.19237,53.028327 -4.13914,27.20942 -8.85198,58.24667 -10.47299,68.97167 -1.62101,10.725 -3.8461,25.32585 -4.94463,32.44634 -1.09854,7.12048 -1.76122,13.18245 -1.47264,13.47104 0.8524,0.85239 2.27072,-2.09824 2.95474,-6.14692 0.51345,-3.03909 1.0683,-3.77046 2.86044,-3.77046 2.02209,0 2.66162,-1.5458 7.06247,-17.07067 l 4.83905,-17.07067 2.58099,0.64779 c 1.41954,0.35628 2.99183,0.72558 3.49398,0.82067 0.50214,0.0951 1.3264,-1.40212 1.83169,-3.32712 3.95143,-15.05394 4.70129,-16.74011 7.22962,-16.25679 2.28199,0.43623 2.60178,-0.0812 5.088,-8.23222 2.75192,-9.02214 2.78791,-9.05546 7.62317,-7.05652 1.38123,0.57101 1.83518,-0.42719 2.80258,-6.16261 1.51709,-8.99435 2.00017,-9.72697 5.3941,-8.18059 3.38817,1.54375 3.31254,1.64807 5.15513,-7.11127 1.96092,-9.32191 0.95008,-8.93448 11.46087,-4.39272 9.87472,4.26691 9.67551,3.97709 7.54995,10.98379 -2.16853,7.14837 -1.9672,8.11444 1.98918,9.54509 3.94692,1.42723 4.05006,1.95639 2.02,10.36384 -0.79682,3.3 -1.46479,6.3026 -1.48438,6.67245 -0.0196,0.36984 1.53938,1.19224 3.46438,1.82755 1.925,0.63531 3.49229,1.23271 3.48286,1.32755 -0.009,0.0949 -0.90171,3.54745 -1.98286,7.67245 -2.53698,9.67954 -2.53274,9.72408 0.99916,10.49981 2.429,0.5335 2.90932,1.07139 2.52659,2.82946 -1.00258,4.60544 -2.52575,14.11858 -2.52575,15.77493 0,1.11679 1.07106,1.97213 3,2.3958 3.64265,0.80006 3.7998,-1.35995 -1.39628,19.19234 -3.7052,14.65534 -4.12312,17.27811 -2.83204,17.77354 0.83302,0.31966 1.58141,0.4581 1.66309,0.30766 0.0817,-0.15045 1.17676,-3.56252 2.4335,-7.58239 1.95978,-6.26868 2.49839,-7.13174 3.78457,-6.06431 1.45341,1.20623 3.28379,-0.0838 3.33185,-2.34833 0.0844,-3.97632 5.19257,-11.93326 6.77496,-10.55326 4.20824,3.66999 6.43943,4.16229 8.21226,1.81199 l 1.65965,-2.20025 6.73781,3.32256 c 5.7003,2.81095 6.64014,3.63191 6.10349,5.33151 -1.79768,5.69334 -1.70684,6.06799 1.94874,8.03665 4.53676,2.44321 4.70761,1.57416 -2.9216,14.86114 -7.61767,13.26689 -7.32576,12.03975 -3.25,13.66242 1.7875,0.71165 3.39329,1.39703 3.56842,1.52308 0.17514,0.12604 -1.96236,3.86845 -4.75,8.31647 -5.59881,8.93361 -5.86056,9.75552 -3.31842,10.41985 0.9625,0.25153 -92.2625,0.50953 -207.16667,0.57333 -114.90416,0.0638 -208.652903,-0.14776 -208.330526,-0.47014 z"
     id="path3086"
     inkscape:connector-curvature="0" />
</svg>
