<?xml version="1.0" encoding="UTF-8" standalone="no"?>
<!-- Created with Inkscape (http://www.inkscape.org/) -->

<svg
   xmlns:dc="http://purl.org/dc/elements/1.1/"
   xmlns:cc="http://creativecommons.org/ns#"
   xmlns:rdf="http://www.w3.org/1999/02/22-rdf-syntax-ns#"
   xmlns:svg="http://www.w3.org/2000/svg"
   xmlns="http://www.w3.org/2000/svg"
   xmlns:sodipodi="http://sodipodi.sourceforge.net/DTD/sodipodi-0.dtd"
   xmlns:inkscape="http://www.inkscape.org/namespaces/inkscape"
   id="svg3039"
   version="1.1"
   inkscape:version="0.48.4 r9939"
   width="450"
   height="276"
   sodipodi:docname="austin2.svg">
  <metadata
     id="metadata3045">
    <rdf:RDF>
      <cc:Work
         rdf:about="">
        <dc:format>image/svg+xml</dc:format>
        <dc:type
           rdf:resource="http://purl.org/dc/dcmitype/StillImage" />
        <dc:title></dc:title>
      </cc:Work>
    </rdf:RDF>
  </metadata>
  <defs
     id="defs3043" />
  <sodipodi:namedview
     pagecolor="#ffffff"
     bordercolor="#666666"
     borderopacity="1"
     objecttolerance="10"
     gridtolerance="10"
     guidetolerance="10"
     inkscape:pageopacity="0"
     inkscape:pageshadow="2"
     inkscape:window-width="1920"
     inkscape:window-height="1056"
     id="namedview3041"
     showgrid="false"
     inkscape:zoom="3.1594203"
     inkscape:cx="225"
     inkscape:cy="138"
     inkscape:window-x="0"
     inkscape:window-y="322"
     inkscape:window-maximized="1"
     inkscape:current-layer="svg3039" />
  <path
     style="fill:#808080"
     d="m 19.564544,276.36818 c 0.319749,-0.31975 -1.174108,-3.8359 -3.319684,-7.81365 -3.864888,-7.16526 -3.953992,-9.60499 -0.350791,-9.60499 4.383052,0 3.524341,-2.87776 -6.0079513,-20.13421 -5.9799981,-10.82568 -9.19650743,-17.63889 -8.606053,-18.22934 0.5641023,-0.5641 0.5844223,-1.61255 0.050585,-2.61004 -0.68697413,-1.28362 -0.2160654,-2.06663 2.0468042,-3.40334 1.6164829,-0.95488 2.9390598,-2.31999 2.9390598,-3.03358 0,-0.7136 1.125,-2.51134 2.4999999,-3.99499 2.2213944,-2.39692 2.5000004,-3.56477 2.5000004,-10.47936 0,-9.91335 -0.07689,-9.86974 8.880962,-5.03793 5.543643,2.9902 8.225277,3.90657 10.085304,3.44637 4.344062,-1.07479 12.486352,-1.39153 13.533734,-0.52648 0.55,0.45426 2.275193,0.97825 3.833762,1.16441 2.600229,0.3106 3.887567,2.34281 15.620899,24.65939 13.813828,26.27365 14.412194,27.21225 16.205089,25.41935 0.879666,-0.87967 0.528572,-2.86933 -1.453782,-8.23866 -1.437442,-3.8934 -2.399565,-7.63649 -2.138051,-8.31798 0.261514,-0.6815 -7.605213,-14.94829 -17.481615,-31.70399 -15.890223,-26.95838 -17.79188,-30.64747 -16.521698,-32.05101 1.999047,-2.20892 1.859769,-3.03016 -1.758199,-10.36702 -3.104976,-6.29656 -3.143101,-6.53206 -1.37391,-8.487 1.766593,-1.95206 1.738443,-2.20188 -0.964817,-8.56241 -2.390828,-5.6254 -2.608544,-6.88045 -1.539935,-8.87717 1.138313,-2.12695 -1.281148,-14.36092 -5.514702,-27.88501 -1.189495,-3.799841 1.890953,-1.33611 9.314103,7.44938 11.177966,13.22942 10.960686,13.03806 13.351213,11.75868 3.095218,-1.65651 3.984058,-0.88124 6.401959,5.58396 1.987067,5.31319 2.53246,5.9622 5.039544,5.99695 3.069942,0.0426 2.969288,-0.0909 7.409727,9.82719 2.753139,6.14938 3.30874,6.79515 5.32223,6.18598 1.236501,-0.3741 2.851179,-0.76387 3.588174,-0.86616 0.883659,-0.12265 6.356804,12.41429 16.071588,36.81402 13.190077,33.1283 17.924937,44.25145 18.048377,42.39922 0.022,-0.33042 -0.38314,-1.90542 -0.90036,-3.5 C 94.786131,162.95361 88.234999,142.85345 84.208965,130.79001 78.69526,114.26898 78.67306,114.14053 81.033239,112.41473 c 1.606571,-1.17476 1.542406,-1.85883 -1,-10.66107 C 76.703748,90.226402 76.693061,89.554635 79.816514,88.131495 82.922179,86.716459 82.99331,87.7372 78.765745,73.052788 c -3.227619,-11.211109 -3.409636,-12.489517 -2,-14.047148 0.922608,-1.01947 1.550769,-3.556143 1.550769,-6.262395 0,-2.82344 0.568953,-5.021004 1.5,-5.793704 1.067261,-0.885748 1.5,-3.229013 1.5,-8.122445 0,-5.321525 0.326019,-6.877555 1.440983,-6.877555 2.762354,0 2.765258,-7.018688 0.0082,-19.75 -0.589522,-2.7222136 0.911921,-2.8895726 6.361493,-0.709087 3.704613,1.482292 3.997685,1.957829 7.703735,12.5 2.991439,8.509469 4.258615,10.959087 5.669085,10.959087 2.439,0 2.32386,-1.125151 -1.27661,-12.474112 -3.051796,-9.61951 -3.070726,-9.808346 -1.417296,-14.1378116 2.367866,-6.200158 3.515656,-5.578148 8.510406,4.6119236 4.67549,9.538738 4.84366,9.698767 8.14422,7.75 1.51894,-0.896831 2.23253,-0.934192 2.52569,-0.132236 2.17086,5.938591 5.01917,9.862656 7.00929,9.656571 1.6433,-0.170171 2.92043,0.978998 5.1934,4.673031 1.92441,3.127574 3.8302,5.016913 5.27115,5.225666 2.04017,0.295563 2.50184,1.527568 4.8066,12.826968 2.54965,12.5 2.54965,12.5 5.50765,12.5 2.94363,0 2.9655,0.04369 4.5,8.989821 1.29577,7.554278 1.86137,9.046867 3.542,9.347064 3.16176,0.564761 3.08703,0.272563 7.45924,29.163114 5.33716,35.26665 6.08808,38.59669 8.61059,38.18493 6.31555,-1.03092 5.58595,-2.7072 9.93017,22.81507 4,23.5 4,23.5 6.81047,23.82226 3.61217,0.41418 5.68953,-1.34652 5.68953,-4.82226 0,-1.51531 0.675,-3.31531 1.5,-4 1.08008,-0.89639 1.51992,-3.38018 1.57115,-8.87244 0.0391,-4.19516 0.50316,-11.22756 1.03116,-15.62756 0.52801,-4.4 1.60201,-13.85 2.38667,-21 3.74171,-34.09536 6.40284,-43.271 14.92048,-51.446166 3.59054,-3.446167 3.59054,-3.446167 3.59054,-12.34227 0,-7.381908 0.34042,-9.328875 2,-11.438692 1.1,-1.398424 2,-3.381902 2,-4.40773 0,-1.025827 0.45,-1.865141 1,-1.865141 0.55,0 1,0.758497 1,1.685549 0,0.927052 0.91731,2.661984 2.03847,3.855405 1.60453,1.707936 2.17182,4.059357 2.66486,11.045736 0.59894,8.487117 0.77386,9.00645 3.99354,11.856937 11.37552,10.071122 17.56428,36.864022 18.949,82.035672 0.32991,10.76234 0.84588,15.40741 1.83281,16.5 0.7555,0.83638 1.51936,3.3207 1.69748,5.5207 0.32384,4 0.32384,4 5.08404,4.30521 5.6565,0.36267 5.31303,0.99153 7.15251,-13.09532 1.62024,-12.40797 2.23724,-13.49275 7.90953,-13.9062 4.16647,-0.30369 4.16647,-0.30369 5.17212,-7.19515 0.81531,-5.5872 1.40466,-7.03793 3.11396,-7.66537 2.45465,-0.90103 1.91622,2.6252 9.38109,-61.438618 4.30488,-36.944682 5.27103,-43.207185 6.86528,-44.5 1.02044,-0.827503 2.13147,-2.292051 2.46895,-3.254551 0.34739,-0.99079 1.62503,-1.75 2.94498,-1.75 1.28226,0 2.81282,-0.481444 3.40126,-1.069875 1.78114,-1.781141 19.15615,0.566655 21.72966,2.936217 1.15525,1.063699 3.00046,2.096018 4.10046,2.294044 1.18102,0.212611 2.13374,1.299274 2.32661,2.653708 0.18844,1.323329 1.35183,2.683449 2.75,3.215034 3.20326,1.217875 4.23538,-8.053567 -8.06768,72.470871 -1.34452,8.8 -4.92659,32.425 -7.96016,52.5 -3.03356,20.075 -5.74402,37.77366 -6.02324,39.33036 -0.77533,4.3226 1.75667,2.77332 2.82073,-1.72595 0.59176,-2.50224 1.6457,-4.03105 3.18146,-4.61495 1.65284,-0.62841 2.72277,-2.36098 3.81717,-6.1813 0.83634,-2.91949 2.72959,-9.58316 4.20721,-14.80816 3.43421,-12.14364 3.65034,-12.5 7.58105,-12.5 3.2566,0 3.277,-0.0313 5.85548,-8.99364 2.01377,-6.99944 3.02253,-9.07434 4.54944,-9.3576 3.21954,-0.59729 4.12262,-1.87623 5.94246,-8.41581 2.15731,-7.75225 2.76034,-8.49798 6.43567,-7.95856 2.7515,0.40384 2.99964,0.16919 3.6171,-3.4204 1.60651,-9.33945 1.88446,-9.85399 5.32315,-9.85399 3.81032,0 4.79433,-1.32544 5.66072,-7.62483 1.12516,-8.18094 1.79626,-8.46342 10.80261,-4.54711 10.3465,4.49906 10.18028,4.25854 8.09058,11.70617 -1.91713,6.83258 -1.86194,6.97332 4.12184,10.51216 1.66405,0.98413 1.67658,1.45987 0.21069,7.99454 -1.7197,7.66606 -1.62033,8.17497 1.85425,9.496 2.86154,1.08796 2.9934,2.89541 0.82246,11.27335 -1.64861,6.36219 -1.2488,7.57999 2.94781,8.97886 0.76876,0.25625 0.70999,2.94662 -0.20215,9.25535 -1.37026,9.47719 -1.51942,8.92475 3.22786,11.95551 1.38987,0.88732 1.12065,2.74652 -2.38926,16.5 -4.34643,17.03134 -4.62581,19 -2.6964,19 0.72312,0 2.19604,-2.77792 3.2957,-6.2157 1.54821,-4.84005 2.50046,-6.33663 4.30263,-6.76206 1.71747,-0.40544 2.95807,-2.15521 4.81014,-6.7843 2.81158,-7.02729 2.82231,-7.03295 7.78089,-4.10732 3.61114,2.13063 3.61114,2.13063 5.61781,-0.0233 2.59342,-2.78371 14.65575,2.70537 14.0703,6.40282 -0.8258,5.21544 -0.58835,5.96216 2.52655,7.94526 4.13566,2.63297 4.26639,1.95586 -2.71148,14.04459 -6.7113,11.62691 -7.07657,13.14019 -3.5,14.5 3.40721,1.29542 3.19621,2.43299 -2,10.78276 -5.01976,8.06623 -5.25286,8.87385 -2.75,9.52791 0.9625,0.25153 -92.2625,0.50953 -207.16667,0.57333 -114.90416,0.0638 -208.655046,-0.14561 -208.335296,-0.46536 z"
     id="path3053"
     inkscape:connector-curvature="0" />
</svg>
