<?xml version="1.0" encoding="UTF-8" standalone="no"?>
<!-- Created with Inkscape (http://www.inkscape.org/) -->

<svg
   xmlns:dc="http://purl.org/dc/elements/1.1/"
   xmlns:cc="http://creativecommons.org/ns#"
   xmlns:rdf="http://www.w3.org/1999/02/22-rdf-syntax-ns#"
   xmlns:svg="http://www.w3.org/2000/svg"
   xmlns="http://www.w3.org/2000/svg"
   xmlns:sodipodi="http://sodipodi.sourceforge.net/DTD/sodipodi-0.dtd"
   xmlns:inkscape="http://www.inkscape.org/namespaces/inkscape"
   id="svg3050"
   version="1.1"
   inkscape:version="0.48.4 r9939"
   width="542"
   height="260"
   sodipodi:docname="austin4.png">
  <metadata
     id="metadata3056">
    <rdf:RDF>
      <cc:Work
         rdf:about="">
        <dc:format>image/svg+xml</dc:format>
        <dc:type
           rdf:resource="http://purl.org/dc/dcmitype/StillImage" />
        <dc:title></dc:title>
      </cc:Work>
    </rdf:RDF>
  </metadata>
  <defs
     id="defs3054" />
  <sodipodi:namedview
     pagecolor="#ffffff"
     bordercolor="#666666"
     borderopacity="1"
     objecttolerance="10"
     gridtolerance="10"
     guidetolerance="10"
     inkscape:pageopacity="0"
     inkscape:pageshadow="2"
     inkscape:window-width="1680"
     inkscape:window-height="1026"
     id="namedview3052"
     showgrid="false"
     inkscape:zoom="2.2509225"
     inkscape:cx="278.82033"
     inkscape:cy="137.94316"
     inkscape:window-x="1920"
     inkscape:window-y="24"
     inkscape:window-maximized="1"
     inkscape:current-layer="svg3050" />
  <path
     style="fill:#010102"
     d="M 36.261532,254.1166 C 37.154593,238.31163 30.588431,230.90349 8.5726519,222.87716 l -7.62838959,-2.7811 -0.2562082,-76.60377 -0.2562081,-76.603766 27.98670499,0 27.986706,0 0.269503,21.75 0.269502,21.749996 4.75,0.30479 4.75,0.30479 0.11535,2.69521 c 0.225842,5.27692 0.410685,5.69891 2.63465,6.01476 l 2.25,0.31955 0,21.93045 c 0,14.20902 0.358347,21.93045 1.017779,21.93045 0.669752,0 0.926212,-8.2922 0.75,-24.25 l -0.267779,-24.25 2.94428,-2.25 2.944279,-2.25 16.111441,0 16.111438,0 3.04618,2.25 3.04617,2.25 -0.10189,23.22533 -0.1019,23.22533 16.5,0.27467 16.5,0.27467 0.14267,7 0.14266,7 3.10734,0.31336 3.10733,0.31336 0,5.93664 c 0,3.29109 0.44563,5.93664 1,5.93664 0.65328,0 1,-17.26667 1,-49.8 l 0,-49.799996 -1.2,-1.2 -1.2,-1.2 1.16789,-1.167889 c 2.24104,-2.241037 22.23211,-0.737325 22.23211,1.672281 l 0,1.249934 4.43833,-0.500265 c 2.44108,-0.275145 7.39108,-0.184051 11,0.202432 l 6.56167,0.702695 0,21.920398 0,21.92041 1.5,0 c 0.825,0 1.5,-0.675 1.5,-1.5 0,-0.825 0.38047,-1.5 0.84548,-1.5 0.46502,0 1.14796,-22.1625 1.51765,-49.249996 0.36969,-27.0875 0.95461,-53.005682 1.29982,-57.595961 l 0.62766,-8.34596 2.44359,-2.90404 2.44359,-2.9040386 5.45907,0 5.45907,0 2.42043,2.7499996 2.42044,2.75 0.0316,5.190983 c 0.0174,2.855041 0.40905,5.424257 0.87037,5.70937 0.46132,0.285113 1.14944,17.299171 1.52916,37.809017 l 0.69039,37.290626 1.21495,2.75 c 0.66822,1.5125 1.7801,2.75 2.47084,2.75 0.69074,0 1.25589,0.675 1.25589,1.5 0,0.825 0.675,1.5 1.5,1.5 l 1.5,0 0,20.5 0,20.5 2,0 2,0 0.14806,6.75 c 0.0814,3.7125 0.19393,7.65 0.25,8.75 l 0.10194,2 2.5,0.0136 2.5,0.0135 0.31336,3.23645 c 0.34058,3.5176 1.61176,3.98583 4.62777,1.70464 1.06762,-0.80751 2.59301,-1.4682 3.38976,-1.4682 2.96357,0 4.10495,-3.34995 4.13731,-12.14301 l 0.0318,-8.64301 1.5,-0.57561 1.5,-0.5756 0,-4.31994 c 0,-4.73701 2.83455,-11.23822 5.80795,-13.32087 l 1.89613,-1.3281 0.67615,-7.27512 c 0.91802,-9.87756 2.05779,-10.36355 2.40827,-1.02685 l 0.2885,7.68555 2.96659,2.70955 c 3.63784,3.32266 4.95641,6.60243 4.95641,12.32842 0,2.80398 0.52623,4.6797 1.45939,5.20193 l 1.45939,0.81671 0.29061,9.37707 0.29061,9.37707 1.5,0.68735 c 0.825,0.37805 2.99897,1.43821 4.83104,2.35591 1.83207,0.9177 3.73834,1.66855 4.23615,1.66855 0.51598,0 1.01854,-13.8651 1.16896,-32.25 l 0.26385,-32.24999 4.75,-0.30479 c 2.6125,-0.16764 4.75,-0.73014 4.75,-1.25 0,-0.51987 0.675,-0.94521 1.5,-0.94521 0.825,0 1.5,-0.87344 1.5,-1.94098 0,-1.06754 0.45,-2.2191 1,-2.55902 0.55,-0.33992 1,-4.23454 1,-8.65472 0,-5.035192 0.53092,-9.028003 1.42156,-10.690984 0.78186,-1.459861 1.68413,-3.484515 2.00505,-4.499231 0.32091,-1.014717 1.48442,-2.08054 2.58557,-2.368496 l 2.00208,-0.523557 0.62941,-3.936098 0.62941,-3.936098 1.27902,0.490807 1.27902,0.490807 1.21631,-5.186213 c 0.66898,-2.852417 1.42517,-5.550641 1.68044,-5.996054 0.73488,-1.282264 3.20521,2.575208 3.24033,5.059841 0.0175,1.2375 0.4818,2.25 1.0318,2.25 0.55,0 1,-0.653826 1,-1.452947 0,-1.851607 2.11938,-6.547053 2.95514,-6.547053 0.34876,0 1.30103,2.5875 2.11615,5.75 0.87173,3.38218 1.98117,5.648591 2.69415,5.50374 0.708,-0.14384 1.47261,1.382726 1.83843,3.670478 l 0.62631,3.916739 2.27432,0.570816 c 1.40591,0.352862 2.53773,1.620348 2.96419,3.319505 0.37943,1.511779 1.2167,3.074109 1.86059,3.471845 0.75452,0.466065 1.17072,3.934447 1.17072,9.755987 0,4.968057 0.3375,9.034636 0.75,9.036856 0.4125,0.002 0.75,2.25403 0.75,5.00403 0,2.75 0.45,5 1,5 0.55,0 1,-2.475 1,-5.5 l 0,-5.5 3,0 3,0 0,-5.999995 0,-6.000001 9,0 9,0 0,6.000001 0,5.999995 2.5,0 2.5,0 0,5.5 0,5.5 2.9501,0 2.95009,0 0.29991,5.65866 0.2999,5.65866 1.84163,0.26631 c 2.76113,0.39926 3.35754,1.90066 3.58947,9.03611 l 0.0689,2.11973 2.25,-0.11973 2.25,-0.11974 0.2999,5.75 0.29991,5.75 2.45009,0 2.4501,0 0,10.5 c 0,6.33333 0.39683,10.5 1,10.5 0.60275,0 1,-4.14348 1,-10.43045 l 0,-10.43045 2.25,-0.31955 2.25,-0.31955 0.31037,-3.75 c 0.20302,-2.45306 0.80826,-3.75 1.75,-3.75 l 1.43963,0 0,-8.96482 0,-8.96481 2.25,-1.18144 c 1.2375,-0.64978 4.36527,-2.9389 6.95059,-5.08693 l 4.70059,-3.9055 5.58832,4.55175 c 3.07358,2.50346 6.02082,4.55175 6.54941,4.55175 0.54734,0 0.96109,4.08976 0.96109,9.5 l 0,9.5 7.5,0 7.5,0 0,2 0,2 9,0 9,0 0,2 c 0,1.11111 0.66667,2 1.5,2 l 1.5,0 0,10.02032 0,10.02033 3.93917,-2.00961 3.93916,-2.00962 5.18445,2.60401 c 2.85145,1.4322 5.41165,3.47277 5.68932,4.5346 l 0.50486,1.93061 7.12152,-0.29532 7.12152,-0.29532 0.31058,-2.68942 0.31057,-2.68943 2.68943,-0.41074 2.68942,-0.41075 -2.75,-0.14983 c -3.56086,-0.19401 -3.56086,-1.89415 0,-2.43358 l 2.75,-0.41659 -2.75,-0.14983 c -1.5125,-0.0824 -2.75,-0.63015 -2.75,-1.21722 0,-0.59668 0.84486,-0.79924 1.91584,-0.45932 1.05372,0.33444 2.20527,0.13976 2.55902,-0.43261 0.38154,-0.61735 -0.39779,-1.04068 -1.91584,-1.04068 l -2.55902,0 0,-6.5 0,-6.5 2.55902,0 c 1.51805,0 2.29738,-0.42333 1.91584,-1.04068 -0.35375,-0.57237 -1.5053,-0.76705 -2.55902,-0.43261 -1.05371,0.33444 -1.91584,0.15763 -1.91584,-0.3929 0,-0.55053 1.2375,-1.18843 2.75,-1.41756 l 2.75,-0.41659 -2.75,-0.14983 c -1.5125,-0.0824 -2.75,-0.63015 -2.75,-1.21722 0,-0.59668 0.84486,-0.79924 1.91584,-0.45932 1.05372,0.33444 2.20527,0.13976 2.55902,-0.43261 0.38154,-0.61735 -0.39779,-1.04068 -1.91584,-1.04068 l -2.55902,0 0,-3.5 0,-3.5 2.5,0 c 1.375,0 2.5,-0.49878 2.5,-1.10841 0,-0.68296 -0.9596,-0.86756 -2.5,-0.48095 -1.44165,0.36183 -2.5,0.19606 -2.5,-0.39159 0,-0.56048 1.15156,-1.01905 2.55902,-1.01905 1.49544,0 2.29534,-0.42664 1.92459,-1.02652 -0.34893,-0.56459 -1.38799,-0.90209 -2.30902,-0.75 -1.08413,0.17902 -1.78726,-0.51682 -1.99414,-1.97348 -0.17603,-1.23948 0.20886,-2.25 0.85699,-2.25 0.64709,0 0.91752,0.675 0.60093,1.5 -0.37684,0.98205 0.0302,1.5 1.17873,1.5 1.08766,0 1.75433,-0.76002 1.75433,-2 0,-1.1 -0.40867,-2 -0.90816,-2 -0.49949,0 -0.34796,-0.675 0.33673,-1.5 l 1.24489,-1.5 -2.09106,0 -2.09106,0 0.5756,1.5 c 0.31659,0.825 0.0775,1.5 -0.53138,1.5 -0.60885,0 -1.10699,-1.15532 -1.10699,-2.56739 l 0,-2.56739 1.91584,0.60807 c 1.05372,0.33444 2.20527,0.13976 2.55902,-0.43261 0.38136,-0.61706 -0.39558,-1.04068 -1.90865,-1.04068 l -2.55181,0 0.15012,-3.83125 0.15012,-3.83126 2.34268,0.44783 c 1.32556,0.2534 2.34268,-0.037 2.34268,-0.66874 0,-0.61412 -1.2375,-1.16982 -2.75,-1.23489 l -2.75,-0.11832 3,-0.65289 3,-0.65289 -1.35676,-0.85379 -1.35677,-0.8538 1.35677,-0.85969 1.35676,-0.85968 -2.80902,-0.0153 c -1.615,-0.009 -2.54631,-0.44037 -2.19098,-1.015305 0.33992,-0.55 1.43899,-1 2.44239,-1 1.00339,0 2.05099,-0.86668 2.328,-1.925956 l 0.50364,-1.925956 3.56041,0.282501 3.5604,0.282501 0.30258,-2.606545 0.30258,-2.606566 5.17877,-0.299789 5.17878,-0.29979 0.32122,2.799791 0.32123,2.799789 1.75,-0.138889 1.75,-0.138889 0,62.645403 0,62.64541 -3.95508,1.23438 c -5.97488,1.86475 -16.618,6.91803 -22.51299,10.68901 l -5.25606,3.36226 -2.13794,4.41638 -2.13793,4.41638 0,8.18427 0,8.18428 -5.89466,0 -5.89466,0 0.0381,-8.29648 0.0382,-8.29647 -1.6432,-3.4628 c -1.87958,-3.96091 -2.88038,-4.67243 -15.01577,-10.67542 -36.11335,-17.86414 -76.09596,-18.1463 -110.58237,-0.78041 -16.54487,8.33129 -18.36726,10.60908 -18.12358,22.65257 l 0.17924,8.85901 -7.5785,0 -7.57851,0 0.63712,-6.25 c 0.72547,-7.11669 -0.50357,-12.83273 -3.8378,-17.84896 l -2.26064,-3.40104 -8.89436,-4.61766 c -4.8919,-2.53972 -13.0483,-6.02287 -18.12533,-7.74034 l -9.23098,-3.12268 -12.24476,-1.22427 -12.24477,-1.22426 -13.20962,2.68546 c -15.29275,3.10894 -26.1833,7.05027 -35.96548,13.01602 l -6.93232,4.22773 -2.37645,4.5 -2.37645,4.5 0.30877,8.25233 0.30877,8.25234 -6.18691,-0.002 -6.18692,-0.002 0.0234,-8.38249 c 0.0356,-12.77261 -1.39671,-14.77627 -15.64953,-21.89212 -19.75869,-9.8647 -36.83451,-13.98455 -58,-13.99354 l -13,-0.006 -10.362579,2.17872 c -16.663097,3.50318 -35.293947,11.69794 -44.637449,19.63352 l -4,3.39726 0.268929,9.53199 0.26893,9.53199 -7.301618,0 -7.301619,0 0.382648,-6.77192 z M 209.65479,221.89774 c 0,-12.12712 -2.5338,-11.01969 -4.0117,1.75337 -0.9346,8.07739 -0.71227,8.82227 2.0799,6.96834 l 1.9318,-1.28267 0,-7.43904 z m 299.57634,-0.37828 0.28688,-7.63094 -1.93678,0 -1.93678,0 -0.89794,8.25 c -1.0437,9.5891 -0.8568,10.36115 2.04304,8.43963 l 2.15471,-1.42776 0.28687,-7.63093 z m -470.171993,7.61906 c -0.285945,-0.9625 -0.815053,-2.9875 -1.175795,-4.5 -0.360743,-1.5125 -1.06426,-2.75 -1.563372,-2.75 -1.159202,0 -0.825798,6.09798 0.423727,7.75 1.396134,1.84585 2.914924,1.51788 2.31544,-0.5 z m 157.033103,-3.5 c -0.34683,-2.8875 -0.63451,-6.7125 -0.63929,-8.5 l -0.009,-3.25 -2,0 c -2.30275,0 -2.17157,-0.39657 -2.56107,7.7424 l -0.29873,6.24239 2.15241,1.50761 c 3.48602,2.4417 4.02585,1.8396 3.35537,-3.7424 z m 141.9669,3.5 c -0.28595,-0.9625 -0.81506,-2.9875 -1.1758,-4.5 -1.00152,-4.19909 -2.63238,-3.319 -1.85305,1 0.80038,4.43572 1.1944,5.25 2.54037,5.25 0.55461,0 0.77442,-0.7875 0.48848,-1.75 z m 156.84869,-6 c -0.7906,-8.66557 -0.98157,-9.25 -3.02259,-9.25 l -1.44098,0 -0.0136,4.25 c -0.008,2.3375 -0.27412,5.2209 -0.59246,6.40755 l -0.5788,2.15754 2.09246,2.09246 c 1.1508,1.15085 2.58079,2.09245 3.17772,2.09245 l 1.08532,0 -0.70707,-7.75 z m -442.438889,2.75 c 0.108187,-1.375 0.115264,-2.95 0.01573,-3.5 -0.295192,-1.63111 -1.893848,2.7913 -1.970121,5.45 -0.09178,3.19918 1.689054,1.42235 1.954394,-1.95 z m 298.975319,-0.72568 c 0,-4.413 -0.50699,-4.03248 -1.43112,1.07411 l -0.69644,3.84844 1.06378,-0.65745 c 0.58508,-0.3616 1.06378,-2.2809 1.06378,-4.2651 z M 219.02888,223.4074 c 0.3095,-1.23317 0.41708,-3.7669 0.23906,-5.63051 l -0.32368,-3.38837 -2.375,0 -2.375,0 0.0625,5.75 c 0.0344,3.1625 0.0906,5.93287 0.125,6.15638 0.2172,1.41227 4.18704,-1.05439 4.64712,-2.8875 z m 267.91538,-3.17346 0,-5.84542 -3.25,-0.31336 -3.25,-0.31336 0,5.0088 0,5.00879 2.75,1.38444 c 3.68924,1.8573 3.75,1.77743 3.75,-4.92989 z m 31.2999,-0.70551 0.29991,-5.63991 -2.46109,0 -2.46108,0 -0.33882,6.08655 c -0.38912,6.99017 -0.36702,7.04289 2.50932,5.98483 l 2.15186,-0.79157 0.2999,-5.6399 z m -487.799898,0.36009 0,-6 -2,0 -2,0 0,5.41667 c 0,5.01075 0.607318,6.22621 3.25,6.50438 0.4125,0.0434 0.75,-2.62105 0.75,-5.92105 z m 32,-1.3101 0,-4.829 -2.219288,0.31955 -2.219288,0.31955 -0.04707,5 c -0.05941,6.31125 0.143325,6.73073 2.532005,5.23897 l 1.953641,-1.22006 0,-4.82901 z m 125.176678,5.64441 c 0.17782,-0.91613 0.16352,-3.64111 -0.0318,-6.05552 l -0.35511,-4.38983 -3.14489,0.30552 -3.14488,0.30552 0.26461,4.5 c 0.33714,5.73335 5.50077,10.02907 6.41207,5.33431 z m 141.82332,-4.89333 0,-5.44098 -2,0 -2,0 0,4.8 c 0,4.65251 1.44134,7.66331 3.16008,6.60106 0.46196,-0.2855 0.83992,-2.96754 0.83992,-5.96008 z m 31.80226,-0.20035 0.30226,-5.24063 -2.05226,0 -2.05226,0 0,5.57332 0,5.57333 1.75,-0.33269 1.75,-0.33269 0.30226,-5.24064 z m -340.802258,-1.24063 0,-4 -1.5,0 -1.5,0 0,3.41667 c 0,2.86857 0.580407,3.81925 2.75,4.50438 0.1375,0.0434 0.25,-1.72105 0.25,-3.92105 z m 52,-1.16052 0,-2.83948 -2.5,0 -2.5,0 0,3.97856 0,3.97856 2.5,-1.13907 2.5,-1.13908 0,-2.83949 z m 105.999998,1.16052 0,-4 -3.5,0 -3.5,0 0,2.84719 0,2.84718 2.25,1.08514 c 3.97475,1.91695 4.75,1.46331 4.75,-2.77951 z m 49.81037,-0.25 0.31036,-3.75 -2.56036,0 -2.56037,0 0,4.06955 0,4.06955 2.25,-0.31955 2.25,-0.31955 0.31037,-3.75 z m 249.18963,0.25 0,-4 -3.5,0 -3.5,0 0,2.84719 0,2.84718 2.25,1.08514 c 3.97475,1.91695 4.75,1.46331 4.75,-2.77951 z m 49.81502,-0.32807 0.31502,-3.82807 -2.31502,0.32807 -2.31502,0.32807 -0.31502,3.82807 -0.31502,3.82807 2.31502,-0.32807 2.31502,-0.32807 0.31502,-3.82807 z m -207.81502,-0.17193 c 0,-1.925 -0.39893,-3.5 -0.8865,-3.5 -0.96408,0 -2.08063,5.69954 -1.27448,6.50569 1.32448,1.32447 2.16098,0.16098 2.16098,-3.00569 z m 51.81336,-0.25 0.31336,-3.25 -2.44986,0 -2.44986,0 -0.44114,3.00569 c -0.52003,3.54314 -0.071,4.17928 2.67299,3.78649 l 2.04115,-0.29218 0.31336,-3.25 z m -201.99694,-0.78109 c -0.17403,-1.3921 -0.65392,-2.5171 -1.06642,-2.5 -0.4125,0.0171 -2.133,0.0311 -3.82332,0.0311 l -3.07333,0 0.32858,1.70615 c 0.18071,0.93839 1.45121,2.01853 2.82332,2.40032 4.48825,1.24886 5.14411,1.02563 4.81117,-1.63756 z m 66.60179,1.9241 c 2.34665,-0.90049 2.01416,-4.39301 -0.41821,-4.39301 l -2,0 0,2.5 c 0,2.72207 0.0848,2.78844 2.41821,1.89301 z m 300.58179,-2.5 c 0,-1.22634 -0.70435,-1.89301 -2,-1.89301 -1.90672,0 -2.83713,2.82954 -1.40223,4.26443 1.1193,1.11931 3.40223,-0.47193 3.40223,-2.37142 z m -525.999998,0.10699 c 0,-1.1 -0.4499999,-2 -0.9999999,-2 -0.55,0 -0.9999998,0.9 -0.9999998,2 0,1.1 0.4499998,2 0.9999998,2 0.55,0 0.9999999,-0.9 0.9999999,-2 z m 70.09375,0.94983 c 2.470611,-1.32223 1.558681,-2.94983 -1.652767,-2.94983 l -2.440983,0 0,2 c 0,2.23485 1.180758,2.50881 4.09375,0.94983 z m 228.906248,-0.94983 c 0,-1.1 -0.45,-2 -1,-2 -0.55,0 -1,0.9 -1,2 0,1.1 0.45,2 1,2 0.55,0 1,-0.9 1,-2 z m 70.06574,0.96482 c 2.86298,-1.53222 2.34802,-2.96482 -1.06574,-2.96482 l -3,0 0,2 c 0,2.22871 1.18064,2.50888 4.06574,0.96482 z m 88.22401,-0.96482 -0.52301,-2 -3.38337,0 c -1.86085,0 -3.38337,0.42764 -3.38337,0.95031 0,1.33346 3.09047,2.9831 5.65638,3.01928 l 2.15638,0.0304 -0.52301,-2 z M 88.325854,213.81534 c -1.516806,-0.93744 -3.154287,-0.17707 -2.365879,1.0986 0.301585,0.48798 1.246656,0.61926 2.100158,0.29174 l 1.551821,-0.59549 -1.2861,-0.79485 z m 71.118406,0.7403 c 0,-0.78952 -0.91723,-1.23115 -2.25,-1.08333 -3.02977,0.33603 -2.94901,0.28519 -2.25,1.41621 0.9143,1.47936 4.5,1.21412 4.5,-0.33288 z m 86.5,0.33288 c 0.33992,-0.55 -0.0835,-1 -0.94098,-1 -0.85746,0 -1.55902,0.45 -1.55902,1 0,0.55 0.42344,1 0.94098,1 0.51754,0 1.2191,-0.45 1.55902,-1 z m 142.5,-1.10699 c 0,-1.14261 -2.71175,-1.16842 -3.4138,-0.0325 -0.2925,0.47329 -0.27507,1.11728 0.0387,1.4311 0.78043,0.78039 3.3751,-0.29484 3.3751,-1.3986 z m 70,1.10699 c 0,-0.55 -1.15156,-1 -2.55902,-1 -1.45136,0 -2.2915,0.43284 -1.94098,1 0.33992,0.55 1.49148,1 2.55902,1 1.06754,0 1.94098,-0.45 1.94098,-1 z m 61,-59 c 0,-0.55 -0.92656,-1 -2.05902,-1 -1.13246,0 -1.7809,0.45 -1.44098,1 0.33992,0.55 1.26648,1 2.05902,1 0.79254,0 1.44098,-0.45 1.44098,-1 z m 0,-3 c 0,-0.55 -0.64844,-1 -1.44098,-1 -0.79254,0 -1.7191,0.45 -2.05902,1 -0.33992,0.55 0.30852,1 1.44098,1 1.13246,0 2.05902,-0.45 2.05902,-1 z m -0.8,-3.2 -1.2,-1.2 -1.2,1.2 -1.2,1.2 2.4,0 2.4,0 -1.2,-1.2 z m 0,-3 -1.2,-1.2 -1.2,1.2 -1.2,1.2 2.4,0 2.4,0 -1.2,-1.2 z m 0.8,-10.8 c 0,-0.55 -0.92656,-1 -2.05902,-1 -1.13246,0 -1.7809,0.45 -1.44098,1 0.33992,0.55 1.26648,1 2.05902,1 0.79254,0 1.44098,-0.45 1.44098,-1 z m 0,-3 c 0,-0.55 -0.64844,-1 -1.44098,-1 -0.79254,0 -1.7191,0.45 -2.05902,1 -0.33992,0.55 0.30852,1 1.44098,1 1.13246,0 2.05902,-0.45 2.05902,-1 z m 0,-20 c 0,-0.55 -0.92656,-1 -2.05902,-1 -1.13246,0 -1.7809,0.45 -1.44098,1 0.33992,0.55 1.26648,1 2.05902,1 0.79254,0 1.44098,-0.45 1.44098,-1 z m 0,-3 c 0,-0.55 -0.64844,-1 -1.44098,-1 -0.79254,0 -1.7191,0.45 -2.05902,1 -0.33992,0.55 0.30852,1 1.44098,1 1.13246,0 2.05902,-0.45 2.05902,-1 z m -5,-7 c 0,-0.55 0.45,-1 1,-1 0.55,0 1,0.45 1,1 0,0.55 -0.45,1 -1,1 -0.55,0 -1,-0.45 -1,-1 z"
     id="path3068"
     inkscape:connector-curvature="0" />
</svg>
