<?xml version="1.0" encoding="UTF-8" standalone="no"?>
<!-- Created with Inkscape (http://www.inkscape.org/) -->

<svg
   xmlns:dc="http://purl.org/dc/elements/1.1/"
   xmlns:cc="http://creativecommons.org/ns#"
   xmlns:rdf="http://www.w3.org/1999/02/22-rdf-syntax-ns#"
   xmlns:svg="http://www.w3.org/2000/svg"
   xmlns="http://www.w3.org/2000/svg"
   xmlns:sodipodi="http://sodipodi.sourceforge.net/DTD/sodipodi-0.dtd"
   xmlns:inkscape="http://www.inkscape.org/namespaces/inkscape"
   id="svg2"
   version="1.1"
   inkscape:version="0.91 r13725"
   width="355"
   height="16.25"
   viewBox="0 0 355 16.25"
   sodipodi:docname="divider.svg">
  <metadata
     id="metadata8">
    <rdf:RDF>
      <cc:Work
         rdf:about="">
        <dc:format>image/svg+xml</dc:format>
        <dc:type
           rdf:resource="http://purl.org/dc/dcmitype/StillImage" />
        <dc:title></dc:title>
      </cc:Work>
    </rdf:RDF>
  </metadata>
  <defs
     id="defs6" />
  <sodipodi:namedview
     pagecolor="#ffffff"
     bordercolor="#666666"
     borderopacity="1"
     objecttolerance="10"
     gridtolerance="10"
     guidetolerance="10"
     inkscape:pageopacity="0"
     inkscape:pageshadow="2"
     inkscape:window-width="1453"
     inkscape:window-height="769"
     id="namedview4"
     showgrid="false"
     inkscape:zoom="1.9201435"
     inkscape:cx="117.63119"
     inkscape:cy="1.5783006"
     inkscape:window-x="0"
     inkscape:window-y="27"
     inkscape:window-maximized="0"
     inkscape:current-layer="svg2" />
  <path
     style="fill:#fec006;fill-opacity:1"
     d="M 127.5,14.957538 C 115.46875,14.474284 83.125,13.374625 55.625,12.513851 10.11156,11.089241 1.726434,10.356899 4.0720241,8.011309 4.5012207,7.582112 40.364251,5.82585 83.767649,4.108503 L 162.68291,0.98605501 165.71646,3.83592 168.75,6.685785 171.64306,3.967892 C 173.23425,2.473052 175.86987,1.25 177.5,1.25 c 1.63013,0 4.26575,1.223052 5.85694,2.717892 L 186.25,6.685785 189.28354,3.83592 192.31709,0.98605501 271.23235,4.108503 c 43.4034,1.717347 79.26643,3.473609 79.69563,3.902806 2.33458,2.334586 -5.82789,3.059172 -49.2945,4.375898 -26.25784,0.795423 -61.41409,1.988839 -78.125,2.652036 -28.80302,1.143089 -30.54883,1.083905 -33.56218,-1.137794 -3.10815,-2.291597 -3.24299,-2.291542 -6.07597,0.0025 -3.70833,3.002815 -8.95915,2.994263 -12.79223,-0.02084 -2.95264,-2.322548 -3.06382,-2.322548 -5.93205,0 -3.19682,2.588638 -1.29776,2.534438 -37.64605,1.07445 z m 53.5861,-2.88505 C 182.89266,9.895713 181.65605,8.75 177.5,8.75 c -4.15605,0 -5.39266,1.145713 -3.5861,3.322488 1.78677,2.152934 5.38542,2.152934 7.1722,0 z M 162.18931,10.3125 c 0.40758,-1.227003 -7.6,-1.5625 -37.29348,-1.5625 -20.79687,0 -37.392225,0.421875 -36.87856,0.9375 1.091096,1.095258 34.23915,2.408368 57.50538,2.277988 11.74149,-0.0658 16.28926,-0.516842 16.66666,-1.652988 z M 265.625,9.914838 C 267,9.361333 251.10937,8.872811 230.3125,8.829233 209.51562,8.785653 192.5,9.21875 192.5,9.791667 c 0,0.572916 0.42187,1.468715 0.9375,1.990665 1.20396,1.218734 68.86934,-0.531772 72.1875,-1.867494 z"
     id="path3338"
     inkscape:connector-curvature="0" />
</svg>
